<?xml version="1.0" encoding="utf-8"?>
<!-- Generator: Adobe Illustrator 25.2.3, SVG Export Plug-In . SVG Version: 6.00 Build 0)  -->
<svg version="1.1" id="Layer_1" xmlns="http://www.w3.org/2000/svg" xmlns:xlink="http://www.w3.org/1999/xlink" x="0px" y="0px"
	 viewBox="0 0 900 900" style="enable-background:new 0 0 900 900;" xml:space="preserve">
<style type="text/css">
	.st0{fill:#F8572D;}
	.st1{fill:#3ABFCE;}
	.st2{fill:#A4D009;}
	.st3{fill:#FFBA07;}
</style>
<g>
	<path class="st0" d="M85.8,764.4c-20-3.9-34.5-12-48.9-27.2c-16.5-17.4-23.8-33.9-25.5-57.3c-2.6-36.4,17.4-71.6,49.7-87.6
		c13.5-6.7,27.4-9.8,42.9-9.7c24.9,0.1,45.4,8.7,63.7,26.6l6.4,6.3h333.4c183.3,0,333.7,0.4,334.2,1c0.5,0.7,2.5,5.4,4.4,10.6
		c1.9,5.3,9.1,24.2,15.9,42.2c18.1,47.4,23.2,60.9,23.2,62.1c0,0.7-158.4,1.2-355.5,1.2H174.2l-8.4,7.9
		c-18.4,17-34.6,23.6-60.2,24.2C96.6,764.8,87.7,764.6,85.8,764.4L85.8,764.4z"/>
</g>
<g>
	<path class="st1" d="M82.7,324.6c-25.3-4.8-51.1-25.2-62.7-50c-6.8-14.4-8.4-22.6-8.4-41.3c0.1-20,2.9-30.4,12.8-46.4
		c26.7-43.2,82.3-56.7,126-30.6c4.5,2.7,12,8.4,16.6,12.8l8.4,7.8h252.1h252.1l1.9,3.1c1.1,1.6,3.1,6.4,4.6,10.5
		c1.5,4.1,6.1,16.3,10.2,27.2c4.1,10.9,9.4,24.9,11.7,31.3c2.3,6.4,4.8,12.8,5.4,14.3c3.7,8.2,11,28.2,11,30c0,1.8-32.1,2-275.9,2
		H172.7l-9,8.3c-9.7,8.9-27.9,18.7-36.6,19.7c-2.6,0.3-5.9,1.1-7.1,1.8C116.3,326.9,94,326.6,82.7,324.6z"/>
</g>
<g>
	<path class="st2" d="M90.6,520c-12.3-1-22.9-5.7-32.8-15.3c-15.9-15-21.4-27.2-21.5-48.8c-0.1-12.7,0.4-15.4,3.8-24.1
		c6.8-16.9,23-31.9,40.6-37.5c7.8-2.3,16.5-2.5,176.7-2.5c159.2,0,169,0.1,176.1,2.5c19.7,6.5,37,23.6,42.6,41.8
		c3,9.9,2.6,30.6-0.7,40.5c-4.6,13.9-17.8,30.4-28.7,36c-15.4,7.8-5,7.2-176.2,7.5c-86.9,0-160.7,0.1-164.1,0.3
		C102.8,520.6,95.9,520.4,90.6,520L90.6,520z"/>
</g>
<g>
	<path class="st3" d="M573.3,518c-13.2-4.8-26-15.3-33.6-27.5c-11.8-19.1-12.9-43.2-3-63.7c4.2-8.6,15.1-20.2,24.2-25.7
		c15.3-9.3,13.1-9,111.1-8.7l88.3,0.4l1.8,4.8c1,2.6,4.9,13.1,8.9,23.2c3.8,10.1,8.9,23.3,11.2,29.3c2.2,6,4.6,12.1,5.2,13.6
		c0.5,1.5,1.8,4.9,2.7,7.5s2.2,6,2.9,7.5c3.5,8.4,14.8,38.5,14.8,39.9C807.7,520.8,580.1,520.6,573.3,518L573.3,518z"/>
</g>
</svg>
