<?xml version="1.0" encoding="UTF-8" standalone="no"?>
<!-- Created with Inkscape (http://www.inkscape.org/) -->

<svg
   xmlns:dc="http://purl.org/dc/elements/1.1/"
   xmlns:cc="http://creativecommons.org/ns#"
   xmlns:rdf="http://www.w3.org/1999/02/22-rdf-syntax-ns#"
   xmlns:svg="http://www.w3.org/2000/svg"
   xmlns="http://www.w3.org/2000/svg"
   xmlns:sodipodi="http://sodipodi.sourceforge.net/DTD/sodipodi-0.dtd"
   xmlns:inkscape="http://www.inkscape.org/namespaces/inkscape"
   width="512"
   height="512"
   id="svg2"
   version="1.1"
   inkscape:version="0.48.5 r10040"
   sodipodi:docname="ictp.svg">
  <title
     id="title2991">ICTP Logo</title>
  <defs
     id="defs4" />
  <sodipodi:namedview
     id="base"
     pagecolor="#ffffff"
     bordercolor="#666666"
     borderopacity="1.0"
     inkscape:pageopacity="0.0"
     inkscape:pageshadow="2"
     inkscape:zoom="0.82"
     inkscape:cx="19.875218"
     inkscape:cy="133.22178"
     inkscape:document-units="px"
     inkscape:current-layer="layer2"
     showgrid="false"
     inkscape:window-width="1920"
     inkscape:window-height="1060"
     inkscape:window-x="-2"
     inkscape:window-y="-3"
     inkscape:window-maximized="1"
     showborder="true"
     inkscape:showpageshadow="true" />
  <metadata
     id="metadata7">
    <rdf:RDF>
      <cc:Work
         rdf:about="">
        <dc:format>image/svg+xml</dc:format>
        <dc:type
           rdf:resource="http://purl.org/dc/dcmitype/StillImage" />
        <dc:title>ICTP Logo</dc:title>
        <cc:license
           rdf:resource="http://creativecommons.org/licenses/by-sa/3.0/" />
        <dc:creator>
          <cc:Agent>
            <dc:title>Amir H. Firouzian</dc:title>
          </cc:Agent>
        </dc:creator>
        <dc:language>English</dc:language>
        <dc:description>This is OFFICIAL Logo of ICTP. I ONLY Vectorize it!</dc:description>
      </cc:Work>
      <cc:License
         rdf:about="http://creativecommons.org/licenses/by-sa/3.0/">
        <cc:permits
           rdf:resource="http://creativecommons.org/ns#Reproduction" />
        <cc:permits
           rdf:resource="http://creativecommons.org/ns#Distribution" />
        <cc:requires
           rdf:resource="http://creativecommons.org/ns#Notice" />
        <cc:requires
           rdf:resource="http://creativecommons.org/ns#Attribution" />
        <cc:permits
           rdf:resource="http://creativecommons.org/ns#DerivativeWorks" />
        <cc:requires
           rdf:resource="http://creativecommons.org/ns#ShareAlike" />
      </cc:License>
    </rdf:RDF>
  </metadata>
  <g
     inkscape:label="Image"
     inkscape:groupmode="layer"
     id="layer1"
     transform="translate(0,-540.36218)"
     style="display:inline" />
  <g
     inkscape:groupmode="layer"
     id="layer2"
     inkscape:label="Vector"
     style="display:inline"
     transform="translate(0,448)">
    <g
       id="g3880"
       transform="matrix(8.9628009,0,0,8.9628009,-41.312911,-475.72867)">
      <path
         id="path2997"
         d="M 33,3.09375 C 22.344181,3.09375 13.069615,9.0035872 8.21875,17.75 L 9.5,17.75 C 14.045535,10.796172 21.769462,5.8436117 30.5,5.71875 31.000758,5.6869954 31.500339,5.6555715 32,5.65625 39.49491,5.6664275 46.785706,9.2927592 51.71875,15 63.203517,27.315186 59.054949,48.861095 43.5625,55.78125 31.750762,61.994513 16.740748,57.649851 9.46875,45.9375 l -1.03125,0 C 13.344879,54.472614 22.500811,60.21875 33,60.21875 c 15.66826,0 28.375,-12.783761 28.375,-28.5625 C 61.375,15.877511 48.66826,3.09375 33,3.09375 z"
         style="fill:#2b3a73;fill-opacity:1;stroke:none"
         inkscape:connector-curvature="0" />
      <path
         transform="matrix(0.89906187,0,0,0.89906187,8.0070071,-11.416541)"
         d="m 51.185149,23.696733 a 5.8439736,5.8439736 0 1 1 -11.687948,0 5.8439736,5.8439736 0 1 1 11.687948,0 z"
         sodipodi:ry="5.8439736"
         sodipodi:rx="5.8439736"
         sodipodi:cy="23.696733"
         sodipodi:cx="45.341175"
         id="path3777"
         style="fill:#2b3a73;fill-opacity:1;stroke:none"
         sodipodi:type="arc" />
      <path
         id="path3804"
         d="m 20.5625,22.6875 c -5.064913,0 -9.1875,4.091337 -9.1875,9.15625 0,5.064913 4.122587,9.1875 9.1875,9.1875 4.296132,0 7.882434,-2.97741 8.875,-6.96875 l -4.875,0 c -0.74551,1.709181 -2.274692,2.90625 -4.09375,2.90625 -2.54842,0 -4.625,-2.305273 -4.625,-5.15625 0,-2.850977 2.07658,-5.15625 4.625,-5.15625 1.920792,0 3.52992,1.321701 4.21875,3.1875 l 4.8125,0 C 28.588171,25.746497 24.938436,22.6875 20.5625,22.6875 z"
         style="fill:#2b3a73;fill-opacity:1;stroke:none;display:inline"
         inkscape:connector-curvature="0" />
      <path
         inkscape:connector-curvature="0"
         id="rect3838"
         d="m 29.4065,23.125 0,3.90625 3.4375,0 0,13.5 4.34375,0 0,-13.5 3.53125,0 0,-3.90625 -11.3125,0 z"
         style="fill:#2b3a73;fill-opacity:1;stroke:none" />
      <path
         id="rect3843"
         d="m 6.34375,23.0625 c -0.756722,2.325136 -1.2459674,4.798232 -1.375,7.34375 l 0,2.90625 c 0.1278071,2.521341 0.5997165,4.944471 1.34375,7.25 l 4.375,0 C 9.8012178,37.815434 9.34375,34.885698 9.34375,31.84375 c 0,-3.066319 0.4750397,-6.015136 1.375,-8.78125 l -4.375,0 z"
         style="fill:#2b3a73;fill-opacity:1;stroke:none"
         inkscape:connector-curvature="0" />
      <path
         sodipodi:nodetypes="cccccsscccssscc"
         inkscape:connector-curvature="0"
         id="rect3865"
         d="m 42.375,23.125 0,5.875 0,11.5625 4.21875,0 c 0.02371,-1.895721 -0.02782,-3.792675 0.0351,-5.6875 l 3.027397,0 c 3.255668,0 5.875,-2.619332 5.875,-5.875 0,-3.255668 -2.619332,-5.875 -5.875,-5.875 -2.425076,0.07644 -4.837779,0 -7.28125,0 z m 4.21875,3.78125 2.5625,0 c 1.15472,0 2.09375,0.93903 2.09375,2.09375 0,1.15472 -0.93903,2.09375 -2.09375,2.09375 l -2.5625,0 z"
         style="fill:#2b3a73;fill-opacity:1;stroke:none" />
    </g>
  </g>
</svg>
