<?xml version="1.0" encoding="utf-8"?>
<!-- Generator: Adobe Illustrator 24.0.0, SVG Export Plug-In . SVG Version: 6.00 Build 0)  -->
<svg version="1.1" id="Layer_1" xmlns="http://www.w3.org/2000/svg" xmlns:xlink="http://www.w3.org/1999/xlink" x="0px" y="0px"
	 viewBox="0 0 202 209" style="enable-background:new 0 0 202 209;" xml:space="preserve">
<style type="text/css">
	.st0{fill:#FFFFFF;}
	.st1{fill:#F8A147;}
	.st2{fill:#3A5D7F;}
</style>
<g>
	<path class="st0" d="M185.2,187.5h-62.9l0.1-131.2h31.7v82.9h31.2L185.2,187.5L185.2,187.5z"/>
</g>
<g>
	<path class="st0" d="M111,187.5H16.8l0.1-131.2h80.5L111,75.9C111,75.9,111,187.5,111,187.5z"/>
</g>
<g>
	<g>
		<g>
			<path class="st1" d="M136,112.7c0.6,0.4,1.1,1,1.3,1.7l14.5,1.3l-0.2,2l-14.3-1.2c-0.4,1.5-1.9,2.6-3.5,2.4
				c-0.4,0-0.9-0.2-1.2-0.4l-8.4,9.9l-1.5-1.3l8.5-10c-0.3-0.6-0.5-1.2-0.4-1.9c0.2-1.7,1.6-3,3.3-3.1
				C134.1,112.2,135.4,112.2,136,112.7z"/>
		</g>
	</g>
	<g>
		<g>
			<path class="st1" d="M156.5,154.1c-0.3,1.5-1.8,2.7-3.3,2.7c-0.4,0-0.9-0.1-1.3-0.2l-7.6,10.6l-1.6-1.2l7.6-10.7
				c-0.4-0.5-0.6-1.2-0.6-1.9c0-1.9,1.5-3.4,3.4-3.4c0.3,0,0.6,0,0.8,0.1l5.2-8.7l1.7,1c0,0-5.2,8.7-5.2,8.7c0,0,0.5,0.7,0.5,0.8
				c0.2,0.3,0.3,0.7,0.3,1.1C156.6,153.5,156.6,153.8,156.5,154.1z"/>
		</g>
	</g>
	<g>
		<g>
			<path class="st1" d="M124.7,81.6l9.6-9.5c0.5,0.5,1.1,0.9,1.8,1c1.6,0.3,3.2-0.6,3.7-2.1l13.1,2.3l0.4-2L140,69
				c-0.1-0.4-0.3-0.8-0.5-1.1l9.4-9.9l-1.4-1.4l-9.5,10c-0.2-0.1-0.4-0.1-0.6-0.2c-1.8-0.3-3.6,0.9-3.9,2.7c-0.1,0.3-0.1,0.7,0,1
				l-10.1,10L124.7,81.6z"/>
		</g>
	</g>
	<g>
		<g>
			<path class="st1" d="M29.2,147.8c-1.9,0-3.4,1.5-3.4,3.4c0,0.4,0.1,0.7,0.2,1l-8.2,11.6l1.6,1.2l7.8-11c0.6,0.4,1.2,0.6,2,0.6
				c1.6,0,3-1.2,3.3-2.7h13.3v-2H32.2C31.7,148.7,30.5,147.8,29.2,147.8z"/>
		</g>
	</g>
	<g>
		<g>
			<path class="st1" d="M93.7,139.8c-1.8-0.3-3.6,1-3.8,2.9c-0.1,0.4,0,0.7,0,1L80.1,154l1.4,1.4l9.3-9.8c0.5,0.5,1.1,0.8,1.9,0.9
				c1.6,0.2,3.1-0.7,3.7-2.2l13.2,1.9l0.3-2l-13.4-1.9C96.1,141,95.1,140,93.7,139.8z"/>
		</g>
	</g>
	<g>
		<g>
			<path class="st1" d="M62.4,118c-1.9,0-3.4,1.5-3.4,3.4c0,0.4,0.1,0.7,0.2,1L51,134l1.6,1.2l7.8-11c0.6,0.4,1.2,0.6,2,0.6
				c1.6,0,3-1.2,3.3-2.7H79v-2H65.5C65,118.9,63.8,118,62.4,118z"/>
		</g>
	</g>
	<g>
		<g>
			<path class="st1" d="M31.5,112.1l16.4-20.9L46.3,90l-16.1,20.6c-0.5-0.3-1.1-0.5-1.8-0.5c-1.9,0-3.4,1.5-3.4,3.4
				c0,0.7,0.2,1.3,0.6,1.9L17.9,126l1.6,1.2l7.6-10.6c0.4,0.2,0.8,0.2,1.3,0.3c1.6,0,3-1.2,3.3-2.7l14.3,0.1l0-2L31.5,112.1z"/>
		</g>
	</g>
	<g>
		<g>
			<path class="st1" d="M19.2,77.1l7.1-7.3c1,0.6,2.2,0.7,3.3,0.2c1.7-0.8,2.4-2.9,1.6-4.6C31.1,65.2,31,65.1,31,65l5.5-5.7L34.8,58
				l-5.5,5.7c-0.9-0.3-1.8-0.3-2.7,0.1c-1.7,0.8-2.4,2.8-1.7,4.4l-7.4,7.6L19.2,77.1z"/>
		</g>
	</g>
	<g>
		<g>
			<path class="st1" d="M107,150l-6.2,4.9c-0.8-0.4-1.8-0.6-2.7-0.3c-1.7,0.6-2.7,2.4-2.2,4.2l-8.3,6.6l1.5,1.5l8-6.3
				c0.9,0.7,2.1,1,3.2,0.6c1.8-0.6,2.8-2.5,2.2-4.3c0-0.1-0.1-0.3-0.2-0.4l6.2-4.9L107,150z"/>
		</g>
	</g>
	<g>
		<g>
			<path class="st1" d="M76.5,149.2l-9.3,6.4c-0.8-0.5-1.8-0.7-2.7-0.5c-1.8,0.5-2.9,2.3-2.5,4.1l-9.2,5.9l1.4,1.6l8.9-5.7
				c0.8,0.7,2,1.1,3.2,0.8c1.8-0.5,2.9-2.4,2.5-4.2c0-0.1-0.1-0.2-0.1-0.4l9.3-6.5L76.5,149.2z"/>
		</g>
	</g>
	<g>
		<g>
			<path class="st1" d="M94.6,104.1l14.9-22l-0.4-0.2v-2H95.6c-0.5-1.2-1.7-2-3.1-2c-1.9,0-3.4,1.5-3.4,3.4c0,0.4,0.1,0.7,0.2,1
				L81,93.9l1.6,1.2l7.8-11c0.6,0.4,1.2,0.6,2,0.6c1.6,0,3-1.2,3.3-2.7h11.4l-14.1,20.8c-0.5-0.3-1.1-0.4-1.8-0.4
				c-1.9,0.1-3.3,1.7-3.2,3.6c0,0.7,0.3,1.3,0.7,1.8l-6.9,11.2l1.7,1.1l6.9-11.1c0.4,0.1,0.8,0.2,1.3,0.2c1.6-0.1,2.9-1.4,3.1-2.9
				l14.3-0.9l-0.1-2L94.6,104.1z"/>
		</g>
	</g>
	<g>
		<g>
			<circle class="st1" cx="137" cy="150.9" r="3.3"/>
		</g>
	</g>
	<g>
		<g>
			<polygon class="st1" points="126.7,166.4 125.1,165.3 135.3,150.6 135.5,150.5 150.9,140.9 151.9,142.6 136.7,152.1 			"/>
		</g>
	</g>
	<g>
		<g>
			<circle class="st1" cx="140" cy="90.7" r="3.3"/>
		</g>
	</g>
	<g>
		<g>
			<polygon class="st1" points="140.2,92.2 124.2,90 124.5,88.1 139.8,90.1 151.3,83 152.3,84.7 			"/>
		</g>
	</g>
	<g>
		<g>
			
				<rect x="131.8" y="108.2" transform="matrix(0.8059 -0.592 0.592 0.8059 -37.0062 105.605)" class="st1" width="21.6" height="2"/>
		</g>
	</g>
	<g>
		<g>
			<path class="st1" d="M83.4,66.6c0.7,0.1,1.4,0.4,1.9,0.9l13.6-5.3l0.7,1.9l-13.3,5.2c0.3,1.6-0.6,3.2-2.1,3.7
				c-0.4,0.2-0.8,0.2-1.3,0.2L79.7,86l-1.9-0.5L81,72.7c-0.5-0.4-1-0.9-1.2-1.5c-0.6-1.6,0.1-3.4,1.6-4.2
				C81.4,67,82.6,66.4,83.4,66.6z"/>
		</g>
	</g>
	<g>
		<g>
			
				<rect x="75.6" y="56.7" transform="matrix(0.7145 -0.6996 0.6996 0.7145 -22.8805 71.8571)" class="st1" width="2" height="14.6"/>
		</g>
	</g>
	<g>
		<g>
			
				<rect x="121.8" y="97" transform="matrix(0.7538 -0.6571 0.6571 0.7538 -31.842 110.9667)" class="st1" width="20.8" height="2"/>
		</g>
	</g>
	<g>
		<g>
			<circle class="st1" cx="64.9" cy="99.2" r="3.3"/>
		</g>
	</g>
	<g>
		<g>
			<polygon class="st1" points="65.2,100.7 49.2,98.6 49.4,96.6 64.7,98.6 76.2,91.6 77.2,93.3 			"/>
		</g>
	</g>
	<g>
		<g>
			
				<rect x="46.7" y="105.5" transform="matrix(0.7538 -0.6571 0.6571 0.7538 -55.9162 63.7482)" class="st1" width="20.8" height="2"/>
		</g>
	</g>
	<g>
		<g>
			<polygon class="st1" points="19.9,103.1 18.2,102 30.7,83 19.2,84.9 18.9,82.9 34.9,80.3 			"/>
		</g>
	</g>
	<g>
		<g>
			<rect x="32" y="75" transform="matrix(0.773 -0.6344 0.6344 0.773 -39.1193 42.7593)" class="st1" width="16.3" height="2"/>
		</g>
	</g>
	<g>
		<g>
			<circle class="st1" cx="172.4" cy="155.2" r="3.3"/>
		</g>
	</g>
	<g>
		<g>
			<polygon class="st1" points="174.3,168.8 170.9,154.9 178,140.4 179.8,141.3 173,155.2 176.2,168.3 			"/>
		</g>
	</g>
	<g>
		<g>
			
				<rect x="166.9" y="140.7" transform="matrix(0.8537 -0.5208 0.5208 0.8537 -52.7308 109.1724)" class="st1" width="2" height="15.5"/>
		</g>
	</g>
	<g>
		<g>
			<g>
				<circle class="st1" cx="137.7" cy="130.8" r="3.3"/>
			</g>
		</g>
		<g>
			<g>
				<polygon class="st1" points="123.2,141.2 122.1,139.5 138,129.6 152.2,136.3 151.4,138.1 138.1,131.9 				"/>
			</g>
		</g>
	</g>
	<g>
		<g>
			<path class="st1" d="M153.2,153.8"/>
		</g>
	</g>
	<g>
		<g>
			
				<rect x="155" y="153.2" transform="matrix(0.9063 -0.4226 0.4226 0.9063 -52.952 80.9063)" class="st1" width="2" height="13.4"/>
		</g>
	</g>
	<g>
		<g>
			<path class="st1" d="M138.1,130.8"/>
		</g>
	</g>
	<g>
		<g>
			<g>
				<circle class="st1" cx="63" cy="140.3" r="3.3"/>
			</g>
		</g>
		<g>
			<g>
				<polygon class="st1" points="48.5,150.7 47.4,149 63.3,139.2 77.5,145.8 76.6,147.6 63.4,141.5 				"/>
			</g>
		</g>
	</g>
	<g>
		<g>
			<path class="st1" d="M63.3,140.3"/>
		</g>
	</g>
	<g>
		<g>
			<circle class="st1" cx="94.8" cy="120.9" r="3.3"/>
		</g>
	</g>
	<g>
		<g>
			<circle class="st1" cx="32.8" cy="81.2" r="3.3"/>
		</g>
	</g>
	<g>
		<g>
			<circle class="st1" cx="46.5" cy="70.9" r="3.3"/>
		</g>
	</g>
	<g>
		<g>
			<circle class="st1" cx="62.5" cy="75.1" r="3.3"/>
		</g>
	</g>
	<g>
		<g>
			<polygon class="st1" points="80.2,131.3 79.1,129.6 95,119.8 109.2,126.4 108.4,128.2 95.1,122.1 			"/>
		</g>
	</g>
	<g>
		<g>
			<path class="st1" d="M95.1,120.9"/>
		</g>
	</g>
	<g>
		<g>
			
				<rect x="91.4" y="136.8" transform="matrix(0.8581 -0.5135 0.5135 0.8581 -56.4938 71.206)" class="st1" width="18.5" height="2"/>
		</g>
	</g>
	<g>
		<g>
			<path class="st1" d="M35.2,137.5c1.8,0.3,3.6-1,3.8-2.9c0.1-0.4,0-0.7,0-1l9.8-10.3l-1.4-1.4l-9.3,9.8c-0.5-0.5-1.1-0.8-1.9-0.9
				c-1.6-0.2-3.1,0.7-3.7,2.2l-13.2-1.9l-0.3,2l13.4,1.9C32.8,136.3,33.8,137.3,35.2,137.5z"/>
		</g>
	</g>
	<g>
		<g>
			
				<rect x="19.1" y="138.5" transform="matrix(0.8581 -0.5135 0.5135 0.8581 -67.6105 34.3332)" class="st1" width="18.5" height="2"/>
		</g>
	</g>
	<g>
		<g>
			<polygon class="st1" points="78.3,85.6 63.1,76.3 51,84.7 49.8,83.1 63,73.9 79.4,83.9 			"/>
		</g>
	</g>
	<g>
		<g>
			
				<rect x="58.4" y="111.9" transform="matrix(0.6736 -0.7391 0.7391 0.6736 -60.8019 88.0364)" class="st1" width="21.8" height="2"/>
		</g>
	</g>
	<g>
		<g>
			<rect x="60.4" y="132.4" transform="matrix(0.7042 -0.71 0.71 0.7042 -73.946 89.2913)" class="st1" width="19.5" height="2"/>
		</g>
	</g>
	<g>
		<g>
			
				<rect x="36.9" y="148.3" transform="matrix(0.662 -0.7495 0.7495 0.662 -106.2541 82.1014)" class="st1" width="2" height="21.1"/>
		</g>
	</g>
	<g>
		<g>
			<polygon class="st1" points="45.9,72.4 42.2,59 44.1,58.5 47.1,69.3 65.3,57.9 66.4,59.6 			"/>
		</g>
	</g>
	<g>
		<path class="st1" d="M24,25.1v15.2h-3.6V25.1h-3.7V22h11v3.1H24z"/>
		<path class="st1" d="M61.8,22v18.3h-3.6V22H61.8z"/>
		<path class="st1" d="M93.5,40.3V21.5h2.6l9.6,12.8h0V22h3.6v18.7h-2.6l-9.6-12.8h0v12.4L93.5,40.3L93.5,40.3z"/>
		<path class="st1" d="M145.1,31.9l-5.7-9.9h4.2l3.2,6.4l3.5-6.4h4.2l-5.8,9.9v8.4h-3.6V31.9z"/>
	</g>
	<g>
		<g>
			<path class="st2" d="M111,187.5H16.8l0.1-131.2h80.5L111,75.9C111,75.9,111,187.5,111,187.5z M52.5,164.3h23V81.7H84v82.7h22.9
				l-0.1-87l-11.8-17H21.1v104h23V81.7h8.3C52.4,81.7,52.4,164.3,52.5,164.3z"/>
		</g>
		<g>
			<path class="st2" d="M185.2,187.5h-62.9l0.1-131.2h31.7v82.9h31.2L185.2,187.5L185.2,187.5z M149.7,60.4h-23v104H181v-21h-31.3
				V60.4z"/>
		</g>
	</g>
</g>
</svg>
