<?xml version="1.0" encoding="utf-8"?>
<!-- Generator: Adobe Illustrator 27.0.0, SVG Export Plug-In . SVG Version: 6.00 Build 0)  -->
<svg version="1.1" id="a" xmlns="http://www.w3.org/2000/svg" xmlns:xlink="http://www.w3.org/1999/xlink" x="0px" y="0px"
	 viewBox="0 0 126.2 45.3" style="enable-background:new 0 0 126.2 45.3;" xml:space="preserve">
<style type="text/css">
	.st0{fill:#15234A;}
</style>
<g>
	<path class="st0" d="M13.8,40.7c1.2-0.1,2.3-0.3,3.4-0.6c0.7-0.2,2.2-0.5,2.7-0.6h0v0c0,0,0,0,0-0.1c0,0,0,0,0,0
		c-0.6-0.2-2.4-0.7-3.6-1.8c-0.8-0.7-1.5-1.5-2.3-2.2c-0.6-0.6-2-1.8-2.1-1.8c0,0,0,0.1,0,0.1c0.2,0.3,0.9,1.9,1.4,2.8
		c0.6,1.2,1.5,2.2,2.8,2.7c0,0,0,0,0,0c0,0,0,0.1-0.1,0.1h0c-1.4-0.2-2.8-0.3-4.2-0.4c-1.1-0.1-2.2-0.1-3.2-0.5
		c-0.7-0.2-1.2-0.4-2.1-1.1c0,0,0,0-0.1,0l0,0c0.9,1.4,2.6,2.6,3.9,3.1C11.3,40.7,12.6,40.8,13.8,40.7L13.8,40.7z"/>
	<path class="st0" d="M12.7,37.8c0.1,0,0.2,0,0.3,0.1l0,0l0-0.1c0,0-0.1-0.1-0.1-0.1c-0.9-0.8-1.4-1.9-1.8-3
		c-0.3-0.8-0.6-1.7-0.9-2.5c-0.4-1.2-1.3-3-2.3-4.2h0c0,0,0,0,0,0.1c0.3,1,0.4,2.2,0.5,3.3c0.4,3.1,1.9,4.6,1.9,4.6c0,0,0,0.1,0,0.1
		c-0.1-0.1-0.1-0.1-0.2-0.1c-1-0.8-2-1.3-3.1-1.8c-0.9-0.4-1.7-0.8-2.5-1.4c-1.7-1.2-2.4-2.1-2.5-2.2c0,0-0.1,0-0.1,0
		c0.1,0.4,0.3,0.8,0.5,1.2c0.7,1.5,1.8,2.7,3.1,3.7s2.7,1.6,4.3,1.8C10.8,37.4,11.8,37.6,12.7,37.8L12.7,37.8z"/>
	<path class="st0" d="M4.8,31.4c1,0.6,2.4,1.5,2.9,1.8l0,0c0,0,0-0.1,0-0.1v0c-0.7-1.3-0.7-2.7-0.9-4C6.8,27.9,7,26.4,7,25.2
		c0-1-0.4-2-0.6-2.9c0-0.1,0-0.1,0-0.1c0,0,0,0-0.1,0.1c0,0,0,0,0,0c-0.1,1.4-0.6,2.7-0.8,3.9c-0.2,1.4-0.1,3.2,0.3,4.2
		c0,0.1,0,0.1-0.1,0c-0.8-1.2-2.4-2.8-3.3-3.7c-1.1-1.2-1.8-2.2-2.2-3.5c0,0-0.1,0-0.1,0c0,0,0,0.1,0,0.2c0,1.8,0.6,3.7,1.6,5.2
		C2.5,29.7,3.6,30.6,4.8,31.4L4.8,31.4z"/>
	<path class="st0" d="M4.3,27.1L4.3,27.1c0,0,0,0,0-0.2c-0.1-1.3,0.1-2.4,0.5-3.7c0.7-1.9,1.3-3.8,1.5-5.8c0-0.3,0-0.7,0-0.8
		c0,0-0.1,0-0.1,0C6,17.4,5.4,18.5,5,19.1c-0.7,1.2-1.6,2.3-1.7,3.7c0,0.3,0,0.8,0,1.2c0,0,0,0,0,0c0,0,0,0,0,0
		c-0.1-0.3-0.2-0.7-0.3-1.2c-0.7-2.3-2.3-3.7-2.3-7c0,0,0-0.1-0.1-0.1c0,0-0.1,0.3-0.2,0.6c-1.4,4.6,1.5,8,2.1,8.7
		C3,25.5,3.9,26.4,4.3,27.1L4.3,27.1z"/>
	<path class="st0" d="M2.2,17.9c0.3,0.9,0.7,2.2,0.8,2.5c0,0,0.1,0,0.1,0c0.2-1,1.3-2.8,1.9-3.7c0-0.1,0.1-0.1,0.1-0.2
		c0.6-0.8,1.3-1.7,1.8-2.7c0.3-0.7,0.8-2.2,0.8-2.3c0,0-0.1,0-0.1,0c-0.5,0.8-1.2,1.5-1.8,2c-0.8,0.7-1.5,1.2-2,2.2
		c0,0.1-0.1,0.3-0.2,0.4c-0.2,0.4-0.3,0.8-0.3,0.8c0,0,0,0.1-0.1,0c0,0,0.1-1.2,0.1-1.4c0-1-0.1-1.9-0.3-2.9
		c-0.2-1.2-0.3-2.2,0.1-3.7c0-0.1,0-0.2,0.1-0.3c0-0.1,0-0.1,0.1-0.2c0,0,0-0.1,0-0.1c-1.3,1.5-2,4.4-1.7,6.6
		C1.6,15.9,2.1,17.7,2.2,17.9z"/>
	<path class="st0" d="M4,13.1c0,0.3,0,0.8,0,0.8c0,0,0,0,0.1,0c0.3-0.4,1.1-1.4,2.3-2.4c0.7-0.5,1.4-1.1,2-1.7
		c0.9-0.8,1.4-2.2,1.5-3c0-0.1,0-0.1,0-0.1c0,0-0.1,0-0.1,0C9.8,6.8,9.7,6.9,9.6,7c-0.5,0.7-1,1.1-1.7,1.5c-1.2,0.7-2,1.3-2.6,2.2
		l0,0c0,0-0.1,0-0.1,0c0.2-0.7,0.3-1,0.4-1.6c0.2-0.9,0.3-2.2,0.7-3c0.2-0.5,0.5-1,1-1.4c0,0,0,0,0,0c0,0,0-0.1,0-0.1
		C7.1,4.7,7,4.7,7,4.8c-1.2,0.6-2,1.6-2.6,2.8C4,8.3,3.9,9.1,3.9,9.9c0,0.3,0,0.5,0,0.8C4,11.4,4,12.4,4,13.1L4,13.1z"/>
	<path class="st0" d="M6.6,8.4C6.6,8.4,6.6,8.4,6.6,8.4C6.6,8.4,6.6,8.4,6.6,8.4c0.4-0.3,1.7-1.3,2.2-1.8c0.7-0.6,1.2-1.4,1.7-2.1
		C11,3.8,11.5,3,12.2,2.4c0.1,0,0.1-0.1,0.2-0.1c0,0,0-0.1,0-0.1C11.2,2.5,9.9,3,9,3.8C7.2,5.2,6.6,8,6.6,8.4L6.6,8.4L6.6,8.4z"/>
	<path class="st0" d="M47.3,37.1c-0.8,0.6-1.4,0.8-2.1,1.1c-1,0.4-2.2,0.4-3.2,0.5c-1.4,0.1-2.8,0.1-4.2,0.4h0c-0.1,0-0.1,0-0.1-0.1
		c0,0,0,0,0,0c1.3-0.5,2.1-1.4,2.8-2.7c0.4-0.8,1.2-2.5,1.4-2.8c0,0,0-0.1,0-0.1c-0.1,0-1.5,1.2-2.1,1.8c-0.8,0.7-1.5,1.5-2.3,2.2
		c-1.2,1.2-3,1.7-3.6,1.8c0,0,0,0-0.1,0c0,0,0,0.1,0,0.1l0,0h0c0.5,0.1,1.9,0.4,2.7,0.6c1.1,0.3,2.2,0.6,3.4,0.6
		c1.3,0.1,2.5,0,3.7-0.5c1.3-0.5,3-1.7,3.9-3.1l0,0C47.4,37.1,47.3,37.1,47.3,37.1L47.3,37.1z"/>
	<path class="st0" d="M51.6,30.6c0,0-0.7,1-2.5,2.2c-0.8,0.6-1.6,0.9-2.5,1.4c-1.1,0.5-2.1,1-3.1,1.8C43.4,36,43.4,36,43.3,36
		c0,0-0.1,0,0-0.1c0.1-0.1,1.5-1.5,1.9-4.6c0.2-1.1,0.2-2.2,0.5-3.3c0,0,0-0.1,0-0.1h0c-1.1,1.2-1.9,3.1-2.3,4.2
		c-0.3,0.8-0.6,1.7-0.9,2.5c-0.4,1.1-0.9,2.2-1.8,3c0,0-0.1,0.1-0.1,0.1s0,0,0,0.1l0,0c0.1,0,0.2,0,0.3,0c1-0.2,1.9-0.4,2.9-0.6
		c1.6-0.3,3-0.8,4.3-1.8c1.3-1,2.4-2.2,3.1-3.7C51.4,31.4,51.5,31,51.6,30.6C51.6,30.6,51.6,30.6,51.6,30.6L51.6,30.6z"/>
	<path class="st0" d="M53.5,23.1C53.5,23.1,53.5,23.1,53.5,23.1c-0.5,1.4-1.2,2.4-2.3,3.6c-0.8,0.9-2.5,2.5-3.3,3.7c0,0-0.1,0-0.1,0
		c0.4-1,0.5-2.8,0.3-4.2c-0.2-1.2-0.7-2.5-0.8-3.9c0,0,0,0,0,0c0,0,0-0.1-0.1-0.1c0,0,0,0-0.1,0.1c-0.2,0.8-0.6,1.9-0.6,2.9
		c-0.1,1.2,0.2,2.7,0.1,3.9c-0.1,1.4-0.2,2.8-0.8,4.1v0l0,0.1l0,0c0.5-0.3,2-1.2,2.9-1.8c1.2-0.8,2.3-1.8,3.1-3
		c1-1.5,1.7-3.3,1.6-5.2C53.5,23.3,53.5,23.2,53.5,23.1L53.5,23.1z"/>
	<path class="st0" d="M50.4,24C50.4,24,50.3,24,50.4,24C50.3,24,50.3,24,50.4,24c0-0.4,0-0.8,0-1.2c-0.1-1.4-0.9-2.5-1.7-3.7
		c-0.4-0.6-1-1.7-1.3-2.3c0,0-0.1,0-0.1,0c0,0.1,0,0.5,0.1,0.8c0.2,2,0.8,3.9,1.5,5.8c0.4,1.3,0.7,2.3,0.5,3.7c0,0.1,0,0.1,0,0.2
		l0,0c0.4-0.6,1.3-1.5,1.8-2.2c0.6-0.7,3.5-4,2.1-8.7c-0.1-0.3-0.2-0.5-0.2-0.6c0,0-0.1,0.1-0.1,0.1c0,3.3-1.6,4.8-2.3,7
		C50.6,23.2,50.5,23.6,50.4,24L50.4,24z"/>
	<path class="st0" d="M47.8,13.6c-0.5-0.5-1.3-1.2-1.8-2c-0.1-0.1-0.2,0-0.1,0c0,0.1,0.5,1.6,0.8,2.3c0.4,1,1.1,1.8,1.8,2.7
		c0.1,0.1,0.1,0.1,0.1,0.2c0.7,0.9,1.7,2.7,1.9,3.7c0,0,0.1,0,0.1,0c0.1-0.3,0.5-1.7,0.8-2.5c0.1-0.2,0.6-2,0.7-2.7
		c0.3-2.2-0.4-5-1.7-6.6c0,0,0,0.1,0,0.1c0,0.1,0,0.1,0.1,0.2c0,0.1,0.1,0.2,0.1,0.3c0.3,1.4,0.2,2.4,0.1,3.7
		c-0.1,1-0.3,1.9-0.3,2.9c0,0.2,0.1,1.4,0.1,1.4c0,0-0.1,0-0.1,0c0,0-0.2-0.5-0.3-0.8c-0.1-0.2-0.1-0.3-0.2-0.4
		C49.4,14.8,48.7,14.3,47.8,13.6z"/>
	<path class="st0" d="M46.4,4.7c0.4,0.4,0.7,0.8,0.9,1.4c0.3,0.8,0.5,2.1,0.7,3c0.1,0.6,0.2,1,0.4,1.6c0,0.1,0,0.1-0.1,0l0,0
		c-0.7-0.9-1.5-1.5-2.6-2.2C45.1,8.1,44.5,7.7,44,7c-0.1-0.1-0.2-0.2-0.3-0.3c0,0-0.1,0-0.1,0c0,0,0,0.1,0,0.1
		c0.2,0.8,0.7,2.1,1.5,3c0.6,0.6,1.3,1.1,2,1.7c1.2,1,2,2,2.3,2.4c0,0,0.1,0,0.1,0c0,0,0-0.5,0-0.8c0-0.7,0-1.7,0.1-2.4
		c0-0.3,0-0.5,0-0.8c0-0.8-0.1-1.6-0.4-2.4c-0.6-1.2-1.4-2.2-2.6-2.8c-0.1,0-0.2-0.1-0.2-0.1C46.4,4.6,46.4,4.6,46.4,4.7
		C46.4,4.7,46.4,4.7,46.4,4.7L46.4,4.7z"/>
	<path class="st0" d="M41.2,2.3c0.1,0,0.1,0.1,0.2,0.1c0.7,0.6,1.3,1.4,1.8,2.2c0.5,0.8,1,1.5,1.7,2.1c0.5,0.5,1.8,1.5,2.1,1.8
		c0,0,0,0,0,0c0,0,0,0,0,0v0C47,8,46.4,5.2,44.6,3.8C43.7,3,42.4,2.5,41.2,2.3C41.2,2.2,41.2,2.3,41.2,2.3L41.2,2.3z"/>
	<path class="st0" d="M42.7,41.3c-0.1,0-0.1,0.1-0.2,0.1c-1.4,0.8-3,0.8-4.6,0.5c-1.1-0.2-2.1-0.6-3.1-1.1c-0.7-0.3-1.4-0.6-2.2-0.9
		c-1.9-0.6-3.8-0.6-5.8-0.1c0,0-0.1,0-0.1,0c0,0-0.1,0-0.1,0c-2-0.5-3.9-0.5-5.8,0.1c-0.7,0.2-1.4,0.6-2.2,0.9c-1,0.4-2,0.9-3.1,1.1
		c-1.6,0.3-3.1,0.2-4.6-0.5c-0.1,0-0.1-0.1-0.2-0.1c0,0-0.1,0-0.1,0c1,1,2.2,1.7,3.4,2c0.9,0.2,1.8,0.3,2.7,0.2
		c1.4-0.2,2.7-0.7,3.8-1.5c0.7-0.5,1.4-0.9,2.1-1.4c0.8-0.5,1.7-0.6,2.6-0.5c0.5,0.1,0.1,0.3,0,0.3c-1.2,0.6-2.4,1.3-3.5,2.2
		c-0.7,0.6-2.1,1.8-2.1,1.8l1,0.8c0,0,0.8-0.8,1.1-1.2c2.2-2.3,4.1-3.3,4.5-3.5c0.1,0,0.2-0.1,0.2-0.1s0.2,0,0.2,0.1
		c0.4,0.2,2.3,1.2,4.5,3.5c0.3,0.3,1.1,1.2,1.1,1.2l1-0.8c0,0-1.3-1.3-2.1-1.8c-1.1-0.8-2.3-1.6-3.5-2.2c-0.1,0-0.5-0.3,0-0.3
		c0.9-0.2,1.8-0.1,2.6,0.5c0.7,0.5,1.4,0.9,2.1,1.4c1.2,0.8,2.4,1.3,3.8,1.5c0.9,0.1,1.8,0.1,2.7-0.2C40.5,43,41.8,42.3,42.7,41.3
		C42.8,41.3,42.7,41.3,42.7,41.3L42.7,41.3z"/>
	<path class="st0" d="M26.3,23.1c0.1-0.2-0.2-0.3-0.3,0C26,23.5,26.2,23.3,26.3,23.1z"/>
	<path class="st0" d="M18.7,21.8c0-0.1,0-0.5-0.1-0.6s-0.1,0.1-0.1,0.1c0,0,0-0.2-0.1-0.2s0,0.3,0.1,0.5
		C18.6,21.7,18.7,22,18.7,21.8L18.7,21.8z"/>
	<path class="st0" d="M18.6,20.9c0,0,0.2-0.7,0.1-0.9c0-0.2-0.2-0.5-0.2-0.4c0,0,0,0.2,0,0.4c0,0.3-0.2,0.6-0.2,0.7
		S18.6,21,18.6,20.9z"/>
	<path class="st0" d="M22.7,21.8c0.1,0,0.1-0.3,0.1-0.4c0-0.1-0.3,0-0.3,0S22.6,21.8,22.7,21.8z"/>
	<path class="st0" d="M25.1,18.2c0.1,0,0.1-0.1,0.2-0.1c0.1,0,0,0.1,0.2,0.1s0.3-0.3-0.2-0.3C25,17.9,25,18.2,25.1,18.2L25.1,18.2z"
		/>
	<path class="st0" d="M25.7,18.6c-0.3-0.1-0.2,0.1-0.4,0.1c-0.3,0,0-0.2-0.2-0.3c-0.1,0-0.2,0.2-0.2,0.3c0,0.1,0,0.3,0.1,0.3
		c0.1,0,0.7,0.1,0.9,0.1C26.2,19.2,25.9,18.6,25.7,18.6L25.7,18.6z"/>
	<path class="st0" d="M26,21.5c-0.1,0-0.3,0-0.3,0s-0.2-0.1-0.1,0s0,0.2,0,0.2c0.1,0.1,0.3,0.1,0.4,0C26.1,21.6,26.1,21.5,26,21.5
		L26,21.5z"/>
	<path class="st0" d="M30.2,14.4c0.1,0,0.4-0.2,0.4-0.2c-0.1,0-0.5-0.2-0.5-0.1C30.1,14.2,30.1,14.3,30.2,14.4z"/>
	<path class="st0" d="M30.1,14.5c-0.1-0.1-0.7,0.6-0.6,0.7C29.5,15.2,30.1,14.5,30.1,14.5z"/>
	<path class="st0" d="M34.6,13.5c0.1,0.2,0.1,0.4-0.2,0.5c-0.2,0-0.2,0.2,0,0.2c0.1,0,0.3,0,0.4-0.1c0.1-0.1,0.2-0.1,0.2-0.3
		c0-0.1-0.2-0.3-0.1-0.5c0.1-0.1,0.2,0.1,0.4,0c0.1-0.1,0.1-0.1,0.1-0.3c0-0.2-0.1-0.4-0.3-0.4c-0.2,0-0.4,0.4-0.4,0.4
		C34.6,13.2,34.6,13.3,34.6,13.5L34.6,13.5z"/>
	<path class="st0" d="M37.9,13.9c-0.1-0.2-0.4-0.9-0.5-0.9c-0.1,0,0.2,0.5,0.2,0.7c0,0.1,0,0.1,0,0.2c0,0.1,0.3,0.7,0.3,0.9
		c0,0.2,0.1,0.7,0.2,0.6c0.1,0,0.1-0.3,0.1-0.5C38.1,14.6,38.1,14.3,37.9,13.9z"/>
	<path class="st0" d="M36.8,20.5c0.2,0,0.2-0.3,0-0.3c-0.2,0-0.4,0.3-0.3,0.3C36.6,20.4,36.7,20.5,36.8,20.5z"/>
	<path class="st0" d="M28.6,3.5c-0.3-0.2,0-0.5-0.3-0.7c-0.2-0.1-0.7,0-0.8,0.2c-0.2,0.3,0.3,0.2,0.5,0.3c0.2,0.1,0.6,0.5,0.7,0.4
		C28.7,3.5,28.6,3.5,28.6,3.5z"/>
	<path class="st0" d="M30.5,2.5c-0.4-0.2-2.1-0.2-2,0.2c0,0.4,0.9,0,1.2,0S30.9,2.7,30.5,2.5L30.5,2.5z"/>
	<path class="st0" d="M35.9,5.6c0.2,0.1,0.2-0.2-0.1-0.5c-0.3-0.2-0.6-0.1-0.5,0C35.4,5.2,35.8,5.5,35.9,5.6z"/>
	<path class="st0" d="M45.5,18.4c-0.1-4.9-2.1-9.4-5.2-12.7c-0.2-0.2-0.3-0.3-0.4-0.5C36.5,2.1,32.1,0.1,27.1,0c-0.1,0-0.2,0-0.3,0
		s-0.2,0-0.3,0c-4.9,0.1-9.4,2.1-12.7,5.2c-0.2,0.2-0.3,0.3-0.5,0.5C10.2,9,8.2,13.5,8.1,18.4c0,0.1,0,0.2,0,0.3s0,0.2,0,0.3
		c0.1,4.9,2.1,9.4,5.2,12.7c0.2,0.2,0.3,0.3,0.5,0.4c3.3,3.2,7.8,5.2,12.7,5.2c0.1,0,0.2,0,0.3,0s0.2,0,0.3,0
		c4.9-0.1,9.4-2.1,12.7-5.2c0.2-0.2,0.3-0.3,0.4-0.4c3.2-3.3,5.2-7.8,5.2-12.7c0-0.1,0-0.2,0-0.3S45.5,18.5,45.5,18.4z M27.1,0.6
		c2.3,0,4.6,0.5,6.7,1.4c1.1,0.5,2.1,1,3.1,1.7c0.9,0.6,1.7,1.2,2.4,2l-2.1,2.1c0,0,0,0-0.1,0C37.1,7.7,37,7.6,37,7.6
		c0.1-0.2-0.1-0.1-0.2-0.5c-0.1-0.4-0.5-0.8-0.7-0.9c-0.2-0.1-0.4-0.3-0.6-0.5c-0.2-0.1-0.7-0.4-1-0.3c-0.1,0.1-0.3,0.1-0.5,0.1l0,0
		c-2-1.1-4.4-1.8-6.8-1.8L27.1,0.6L27.1,0.6z M36.9,27.6c-0.1-0.4-0.2-0.5-0.2-0.6c0-0.2-0.4-0.2-0.4-0.1c0,0.2,0,0.4-0.1,0.6
		c0,0,0,0.1,0,0.1c0,0,0,0,0,0l-1.1-1.1c1.9-2,3-4.6,3.1-7.5h3c0,1.8-0.4,3.6-1.1,5.3c-0.7,1.6-1.7,3.1-2.9,4.3L37,28.4
		c0,0,0,0,0-0.1C37.1,28.1,37,27.8,36.9,27.6L36.9,27.6z M34.4,30.7c-0.1-0.1,0.3-0.4,0.4-0.6c0.1-0.2-0.4-0.3-0.3-0.5
		c0.1-0.3,0.4-0.7,0.6-1c0.1-0.3-0.4-0.6-0.7-0.7c-0.3-0.1-0.3-0.2-0.2-0.5c0,0,0,0,0-0.1c0.2-0.1,0.3-0.3,0.4-0.4l2.1,2.1
		c-0.8,0.7-1.6,1.4-2.5,1.9c0-0.1,0.1-0.1,0.1-0.1C34.4,30.8,34.4,30.8,34.4,30.7L34.4,30.7z M35.3,12.3c0,0,0.1,0,0.1,0
		c0.3,0.5,0.7,1,0.9,1.5c0,0-0.1,0-0.1,0c0,0,0-0.1-0.1,0c0,0,0,0-0.1,0c-0.1,0-0.3-0.3-0.3,0c0,0.3,0.1,0.4,0.3,0.5
		c0.2,0,0.1,0.2,0.2,0.2c0.1,0,0.1,0.1,0.2,0.1c0.1,0,0.2,0.1,0.2,0.1c0.2,0.5,0.4,1,0.5,1.5c-0.1,0-0.1,0.1-0.1,0.1
		c0,0,0.1-0.1,0,0c-0.1,0-0.2,0.1-0.2,0.2c-0.1,0.1-0.1,0.3-0.2,0.4c-0.2,0.3-0.2,0.4-0.6,0.3c-0.2-0.1,0-0.4,0-0.7
		c0-0.2,0.2-0.2,0.2-0.3s-0.5-0.7-0.7-0.5c-0.2,0.2-0.2,0.4-0.4,0.6c-0.1,0.1-0.2,0.1-0.3,0c-0.1-0.1-0.2-0.2-0.2-0.3
		c0.1-0.2-0.4-0.5-0.5-0.7c-0.2-0.3-0.5-0.3-0.7-0.4c0,0,0,0,0,0c-0.3-0.5-0.6-0.9-1-1.3l2.1-2.1c0,0,0,0,0,0.1c0,0.1,0,0.1,0.1,0.1
		c0,0.1,0.1,0.2,0.1,0.2c0,0,0-0.1,0-0.2c0.2,0.2,0.3,0.4,0.5,0.6c0,0-0.1,0-0.1,0C35.3,12.2,35.3,12.2,35.3,12.3L35.3,12.3z
		 M37.3,17.5C37.3,17.5,37.3,17.4,37.3,17.5c0.1-0.1,0.1-0.1,0.2-0.2l0,0c0.1,0.4,0.1,0.7,0.1,1.1h-2.3c0,0,0.1,0,0.1-0.1
		c0,0,0,0,0-0.1c0.1-0.3,0.6-0.2,0.5-0.4c-0.2-0.3,0.1-0.4,0.4-0.5c0.2-0.1,0.4,0,0.5-0.1c0-0.1,0.1-0.3,0.2-0.3
		c0.1-0.1,0.2-0.1,0.3-0.2c0.1-0.1,0-0.1,0-0.2s0.1,0,0.1-0.1l0,0c0,0.1,0,0.2,0.1,0.3c0,0.1-0.1,0.2-0.1,0.2
		c-0.1,0.2-0.2,0.4-0.2,0.5C37.1,17.6,37.1,17.8,37.3,17.5L37.3,17.5z M32.9,15.1c0,0-0.1,0-0.1,0.1s-0.1,0.1-0.1,0.2
		c-0.1,0.1-0.3-0.1-0.4,0c-0.1,0.1,0.3,0.5-0.1,0.4c-0.4-0.1-0.1-0.2-0.1-0.3c0-0.1-0.4-0.3-0.2-0.3c0.2-0.1,0-0.2,0.2-0.3
		c0.2-0.1,0.2-0.3-0.1-0.3c-0.3,0-0.2,0.5-0.4,0.4c-0.2-0.1-0.3,0-0.4-0.1c0,0-0.1,0-0.1-0.1l0.6-0.6c0,0,0,0,0,0
		c0,0,0.1,0.1,0.1,0.1c0.1,0,0.1-0.1,0.2-0.1c0.1,0,0.1,0,0.2,0c0,0,0-0.1,0-0.1C32.5,14.4,32.7,14.7,32.9,15.1L32.9,15.1z
		 M31.4,24.9c0.2,0.1,0.6,0.2,0.6,0.2c0.3,0.1,0.7,0.1,0.9,0.2c0.1,0,0.1,0.1,0.2,0.1c0.1,0.1,0.2,0.1,0.3-0.1
		c0.1-0.1,0.1-0.2,0.2-0.3c0.2-0.3,0.3-0.7,0.4-1.2c0.1-0.7,0-1-0.2-1c-0.1,0-0.3,0.2-0.5,0.2c-0.1,0-0.1,0.2-0.1,0.3
		c0,0.1-0.2,0.3-0.3,0.2c-0.1-0.1-0.2-0.1-0.1,0c0,0.1-0.1,0.1-0.3,0c-0.1,0-0.2,0-0.3-0.1c-0.3-0.2,0.3-0.2,0.7-0.4c0,0,0,0,0.1,0
		c0.2-0.1,0.6-0.5,0.7-0.7c0.1-0.2,0.2-0.5,0.4-0.7c0.2-0.2,0.7-0.2,0.7-0.4c0-0.2,0.1-0.2,0.3-0.2c0.2,0.1,1.5,0,1.5-0.5
		c0-0.2-0.3-0.5-0.6-0.5c-0.2,0-0.2-0.4-0.4-0.6c-0.1-0.3-0.3-0.4-0.3-0.6c0,0,0-0.1,0-0.1h2.4c0,1.3-0.3,2.6-0.8,3.8
		c-0.5,1.2-1.2,2.2-2.1,3.2L34.5,26c0,0,0,0,0-0.1c0-0.1,0-0.2,0-0.2c0-0.4-0.2-1-0.3-1c-0.1,0.1,0,0.1-0.3,0.5l0,0
		c-0.1,0.2-0.2,0.4-0.4,0.4c-0.1,0-0.1,0-0.2-0.1c-0.1,0-0.2,0-0.3,0c-0.4,0.1-0.7,0-0.8,0c-0.1,0-0.8-0.3-1.1-0.5
		c-0.1-0.1-0.2-0.1-0.2-0.1c0,0,0.2,0.1,0.2-0.1C31,24.8,31.2,24.8,31.4,24.9L31.4,24.9z M38.2,18.4c0-0.7-0.1-1.3-0.2-2l0,0
		c0.1-0.2,0.2-0.4,0.1-0.6c0-0.2-0.2-0.3-0.3-0.2c0,0,0,0,0,0c-0.1-0.4-0.2-0.8-0.4-1.2c0,0,0,0,0,0c0.1-0.1-0.1-0.3-0.2-0.6
		c0-0.1-0.1-0.1-0.2-0.2l0,0c-0.1-0.2-0.2-0.3-0.3-0.5c0.1-0.1,0.2-0.3,0-0.3c-0.3,0-0.1-0.2-0.2-0.3c0,0-0.1,0-0.1,0
		c-0.4-0.6-0.8-1.2-1.3-1.7l0.7-0.7c0.1,0.1,0.4,0.4,0.8,0.4c0.2,0,0.3,0.1,0.4,0.4c0,0.2,0.3,0.4,0.5,0.4c0.2,0,0.4,0.3,0.6,0.4
		c0.2,0,0.8,0.9,1.1,1.2c0.1,0.2,0.4,0.4,0.5,0.2c0.1-0.1,0.2-0.1,0.2-0.2c0,0,0.1-0.1,0.1-0.2c0.1,0.1,0.1,0.2,0.1,0.3
		c0.7,1.7,1.1,3.5,1.1,5.3L38.2,18.4L38.2,18.4z M27.1,4.3c1.8,0,3.6,0.4,5.3,1.1c0.3,0.1,0.6,0.3,0.9,0.4c0,0.1-0.1,0.1-0.1,0.2
		c0,0.3,0.2,0.6,0.4,0.8C33.8,7,33.9,7.3,34,7.5c0.2,0.2,0.1,0.4,0.1,0.7c0,0.1,0.1,0.2,0.1,0.3c0,0.1,0,0.3,0,0.4
		c0,0.1,0.2,0,0.3-0.1s0.3-0.3,0.4-0.2c0.2,0,0.5,0.4,0.6,0.7c0,0,0,0.1,0,0.1l-1,1c0-0.2-0.2-0.5-0.1-0.5s0.1,0,0.2,0
		c0.2,0-0.1-0.2-0.2-0.2c-0.2-0.1-0.2-0.3-0.3-0.5C34,9,33.8,9.1,33.7,8.9c-0.2-0.4-0.7-0.9-0.8-0.9c0,0,0.4,0.6,0.3,0.7
		c-0.1,0.1-0.7-0.4-0.8-0.3C32.3,8.5,33,8.8,33.2,9c0.1,0.1,0.3,0.4,0.5,0.7c0.1,0.1,0.1,0,0.1,0c0,0,0,0,0,0
		c-1.8-1.5-4.2-2.3-6.7-2.4L27.1,4.3L27.1,4.3z M27.1,8c1.3,0,2.6,0.3,3.8,0.8c1.2,0.5,2.2,1.2,3.2,2.1L32,13c-1.3-1.2-3-2-4.9-2V8z
		 M27.1,14.6v-3c0.8,0,1.7,0.2,2.4,0.5c0.7,0.3,1.4,0.7,2,1.3c0,0,0,0-0.1,0c0,0-0.1,0.1-0.1,0.2c-0.1,0-0.2,0-0.2,0
		c-0.2-0.1-0.8,0.4-0.6,0.4c0.1,0.1,0.3-0.1,0.4-0.2c0,0,0.1,0,0.1,0l-0.9,0.9c0,0-0.1,0-0.2,0c-0.3,0.1-0.4,0.4-0.5,0.5
		c0,0.1,0,0.1,0,0.1l-0.2,0.2l0,0c-0.3-0.2-0.6-0.5-1-0.6l0,0c0.1-0.1,0.2-0.2,0.2-0.5c0-0.3-0.1-0.2-0.3-0.1
		c-0.2,0.1-0.4,0.3-0.4,0.3c0,0,0,0,0,0C27.7,14.8,27.4,14.7,27.1,14.6L27.1,14.6L27.1,14.6z M27.9,15.4L27.9,15.4
		c0.2,0,0.3,0.1,0.5,0.2c-0.1,0-0.2,0-0.2,0c0,0,0,0-0.1,0c0,0,0,0-0.1,0s0,0,0-0.1C27.9,15.5,27.9,15.5,27.9,15.4
		C27.9,15.5,27.9,15.5,27.9,15.4L27.9,15.4z M27.8,15.4L27.8,15.4z M26.9,15.4c0,0,0,0.1-0.1,0.2c-0.1,0.1-0.4-0.2-0.5,0
		s0.2,0.1,0.2,0.2c0,0.1,0.4,0.4,0.6,0.3c0.2,0,0.5,0,0.5,0.2c0,0.1,0.3,0.1,0.3,0.2c0,0.2,0.1,0.4,0.3,0.3c0.3,0,0.4,0.2,0.2,0.4
		c-0.1,0.2,0.2,0.1,0.2,0.4c0,0.3-0.2,0.1-0.3,0.3c0,0.1-0.2,0.3-0.3,0.4c-0.1,0,0,0.2,0.1,0.1s0.2-0.2,0.3-0.2
		c0.1,0,0.3,0.5,0.4,0.6C29,19,29,19.2,29,19.3c0,0.1-0.2,0-0.2,0.1c0,0.2,0.3,0.2,0.3,0.3c0,0.1-0.2,0.3-0.3,0.3
		c-0.1,0-0.4-0.3-0.4-0.3c0,0.1,0.1,0.4,0.2,0.4s0.5-0.2,0.4,0c-0.1,0.1-0.1,0.5-0.2,0.5c-0.2,0-0.2,0,0,0.1c0,0,0.1,0.3-0.1,0.4
		c-0.1,0.1-0.3,0-0.3-0.1c0-0.1,0.3,0,0.3-0.2c0-0.1-0.2-0.2-0.4-0.1c-0.1,0-0.2,0-0.3,0c-0.1,0-0.4,0.3-0.4,0.4c0,0.1,0,0.2,0,0.3
		c0,0.2,0,0.3-0.1,0.4c0,0.1,0,0.1,0,0.2c-0.2,0-0.3,0-0.5,0c-0.1,0-0.1,0-0.2,0c0,0,0,0,0,0c0,0-0.2-0.1-0.2,0c0,0,0,0,0,0
		c-0.7-0.1-1.3-0.4-1.7-0.8c0,0,0,0,0.1,0c0.1-0.1,0.3-0.2,0.4-0.1c0.2,0,0.2,0,0.3-0.1c0.1,0,0.3,0.1,0.5,0
		c0.1-0.1,0.5-0.7,0.5-0.9c0-0.1,0.4-0.4,0.3-0.4c0,0-0.1,0-0.1,0c0,0,0.1-0.1,0-0.2c-0.1-0.1-0.2-0.1-0.3-0.1
		c-0.2-0.1-0.4-0.2-0.4-0.1c0,0.1-0.2-0.1-0.3-0.1c-0.1,0-0.1,0-0.2,0.1c0,0.1,0.1,0.2,0,0.3c0,0.2-0.3,0.4-0.4,0.5
		c0,0.1-0.1,0-0.2,0.1c0,0.1,0,0.2-0.1,0.2c-0.1,0-0.3,0.4-0.4,0.5c0,0,0,0.1,0,0.1c0,0,0,0.1,0,0.1l0,0c-0.2-0.2-0.4-0.5-0.5-0.8
		c0,0,0,0,0,0c0,0,0.1,0,0.1,0c0.1,0,0.1-0.2,0.2-0.1c0.2,0.1,0.7-0.9,0.6-1.2c-0.1-0.2-0.2-0.1-0.4,0c-0.1,0-0.2-0.1-0.1-0.1
		c0.1-0.1,0.7,0,0.3-0.3c-0.1-0.1-0.5-0.1-0.5-0.2s0.2,0,0.3,0c0.3,0.1,0.4-0.4,0.6-0.4c0.3,0,0.2-0.5-0.1-0.4
		c-0.2,0.1-0.3,0.1-0.5,0.2c-0.1,0.1-0.3,0.3-0.3,0.1c0-0.1,0.5-0.4,0.7-0.5c0.1-0.1,0.2-0.2,0.2-0.4c0.1-0.2,0.8-0.2,0.9-0.3
		c0.1-0.1,0.2-0.3,0.2-0.4c0-0.1-0.2-0.1-0.2-0.2c0-0.1,0.3,0,0.2-0.2c0-0.2-0.3,0-0.3-0.1c0-0.1,0.1-0.1,0.1-0.2c0,0,0-0.1,0-0.1
		l0,0c0.3-0.1,0.6-0.1,0.9-0.1l0,0C26.8,15.3,26.9,15.4,26.9,15.4L26.9,15.4z M18.6,25.3c0,0,0-0.1,0-0.2c0-0.3-0.2-0.5-0.3-0.8
		c-0.1-0.3-0.1-0.6-0.1-0.8c0-0.3-0.1-0.5-0.3-0.8c-0.1-0.1-0.1-0.4-0.1-0.6c0-0.4-0.3-0.2-0.3-0.3c0-0.2,0.2,0,0.3-0.1
		c0-0.1-0.3-0.5-0.5-0.6c-0.2-0.1-0.2-0.2-0.1-0.4s0-0.3-0.1-0.4c-0.1-0.2,0-0.5,0.2-0.5c0.1,0,0.3,0.1,0.4,0c0.1-0.1,0.1-0.4,0-0.6
		c0,0,0-0.1,0-0.1h0.3c0.1,0,0.3,0,0.3,0c0,0,0,0,0.1,0h0.7c0,0.2,0,0.5,0.1,0.8c0,0,0,0,0,0c-0.1,0-0.1,0.1-0.1,0.2
		c0,0.1,0.1,0.1,0.1,0.1c0,0,0,0.1,0,0.1c0.3,1.5,0.9,2.8,1.9,3.8L19,26c-0.1-0.1-0.3-0.3-0.4-0.4l0,0
		C18.6,25.5,18.6,25.4,18.6,25.3C18.6,25.3,18.6,25.3,18.6,25.3z M16.9,20.3c0.4,0.5-0.1,0.7-0.5,0.6c-0.1,0-0.1,0-0.2,0
		c-0.1-0.6-0.2-1.2-0.2-1.9h1.3c0,0.1,0,0.1,0,0.2c-0.1,0.2-0.3,0.2-0.3,0.4S16.8,20.2,16.9,20.3L16.9,20.3z M14.3,23.2
		c-0.2,0.1-0.7,0.1-0.9,0.2c0,0-0.1,0-0.2,0c-0.5-1.4-0.7-2.9-0.8-4.4h3c0,0.5,0.1,1.1,0.2,1.6l0,0c-0.1,0-0.1-0.1-0.2-0.1
		c-0.2,0-0.7,1-0.9,1.4C14.3,22.2,14.6,23,14.3,23.2L14.3,23.2z M15.4,18.4h-3c0-1.8,0.4-3.6,1.1-5.3c0.7-1.6,1.7-3.1,2.9-4.3
		l2.1,2.1C16.7,12.8,15.5,15.5,15.4,18.4z M19.2,15.9c0,0,0.2,0,0.5-0.1c0.3-0.1,0.6-0.2,0.6-0.1c0.1,0.1-0.4,0.2-0.7,0.3
		c0,0,0,0,0,0c-0.3,0.1-0.4,0.4-0.9,0.4c-0.2,0-0.3,0.2-0.4,0.4c-0.1,0.2-0.2,0.4-0.3,0.6c-0.1,0.2,0,0.6-0.2,0.9c0,0,0,0.1,0,0.1
		h-1.5c0-1.3,0.3-2.6,0.8-3.8c0.5-1.2,1.2-2.2,2.1-3.2l2.1,2.1c-0.6,0.6-1,1.3-1.4,2.1c0,0-0.1,0-0.1,0.1
		C19.5,15.8,19.1,15.8,19.2,15.9L19.2,15.9z M19.9,19.5C19.9,19.5,20,19.6,19.9,19.5C19.9,19.7,19.9,19.6,19.9,19.5
		c-0.1-0.1-0.1-0.3-0.1-0.5h0.1c0,0,0,0,0,0c0,0,0.1,0.2,0.1,0.2c0,0,0,0.1,0,0.1C20,19.4,20,19.4,19.9,19.5
		C19.9,19.5,19.9,19.5,19.9,19.5L19.9,19.5z M19.2,17.7c0,0.2,0,0.4,0,0.6h-1c0,0,0,0,0,0c0,0,0,0,0-0.1c0-0.1,0-0.3,0.1-0.4
		c0.1-0.2,0.3-0.3,0.6-0.2C18.9,17.6,19,17.6,19.2,17.7C19.1,17.7,19.2,17.7,19.2,17.7L19.2,17.7z M21.6,13.9l1.9,1.9c0,0,0,0,0,0
		c0,0-0.2,0-0.2,0c-0.2,0-0.2-0.2-0.3-0.1c-0.3,0-0.3,0.1-0.4,0.1c-0.2-0.1-0.5-0.4-0.7-0.5c-0.2-0.1-0.6-0.1-1,0.1
		c0,0-0.1,0.1-0.1,0.1c0,0-0.1,0-0.2,0C20.8,14.9,21.2,14.4,21.6,13.9L21.6,13.9z M21.6,13l-2.1-2.1c0.9-0.9,2-1.6,3.2-2.1
		c1.2-0.5,2.5-0.8,3.8-0.8v3C24.6,11.1,22.9,11.8,21.6,13z M19,10.4l-2.1-2.1c1.3-1.2,2.7-2.2,4.3-2.9c1.7-0.7,3.5-1.1,5.3-1.1v3
		C23.6,7.4,21,8.6,19,10.4z M16.8,28.3l-0.4,0.4c-0.2-0.2-0.3-0.3-0.5-0.5c0.1,0,0.2,0,0.2,0C16.3,28,16.5,28.1,16.8,28.3
		C16.7,28.2,16.7,28.2,16.8,28.3L16.8,28.3z M20.3,21.4C20.1,21,20,20.5,19.9,20c0,0,0.1,0,0.1,0c0.1,0,0.1,0.1,0.2,0.1
		c0.1,0.1,0.2,0.2,0.3,0.2c0.1-0.1,0.3,0,0.4,0c0.1,0,0.2,0.1,0.4,0.3c0.1,0.1,0.3,0,0.4,0.1c0.1,0.1,0.3,0.2,0.1,0.3
		c-0.2,0.1,0.2,0.3,0.3,0.3c0.1,0,0.1-0.1,0.1-0.2c0-0.1,0.1-0.3,0.3-0.2c0.1,0,0.6,0.6,0.7,0.4c0.1-0.1,0.1-0.4,0.1-0.5
		c0,0,0.1-0.1,0.1-0.1c0.1,0.2,0.3,0.5,0.5,0.7l0,0l-2.1,2.1C21.1,22.9,20.6,22.2,20.3,21.4L20.3,21.4z M23.7,19.4
		C23.7,19.4,23.7,19.5,23.7,19.4L23.7,19.4C23.7,19.5,23.7,19.5,23.7,19.4L23.7,19.4c0,0.1,0,0.1,0,0.2v0l0,0v0.1h0v0
		c0-0.1-0.1-0.2-0.1-0.2c0,0-0.1-0.1-0.1-0.1c0,0,0,0-0.1,0c0,0-0.1,0-0.2,0c0,0-0.1,0-0.1,0l0,0c0,0-0.1,0-0.1,0c0,0,0,0-0.1,0h0
		c0,0,0,0,0,0h0c0,0,0,0,0,0h0c0,0,0,0-0.1,0c0,0-0.1,0-0.2,0c0,0-0.1,0-0.1,0s-0.1,0-0.1,0c-0.1,0-0.2,0-0.2,0c0-0.2,0.2,0,0.4-0.5
		c0,0,0-0.1,0-0.1c0-0.1,0.1-0.1,0.1-0.2l0,0l0,0l0,0c0,0,0,0,0-0.1l0,0c0,0,0,0,0-0.1l0,0c0,0,0,0,0.1-0.1c0.1,0,0.1,0,0.2,0l0,0
		c0,0,0,0,0,0h0l0,0h0c0,0,0,0,0,0h0l0,0l0,0h0v0c0,0,0,0,0,0l0,0c0,0,0,0,0,0c0,0,0,0,0,0c0,0,0.1,0.1,0.1,0.1
		c0.1,0,0.2,0.1,0.2,0.2c0,0,0,0,0,0.1c0,0,0,0,0,0c0,0,0.1,0.1,0.1,0.1c0,0,0,0,0,0c0,0,0.1,0,0.1,0c0,0,0,0,0,0c0.1,0,0.1,0,0.1,0
		c0,0,0,0,0,0c0,0,0,0.1,0,0.1c0,0,0,0.1-0.1,0.1c0,0.1-0.1,0.1-0.2,0.1c-0.1,0-0.2,0-0.2-0.1C23.8,19.3,23.8,19.3,23.7,19.4
		C23.8,19.4,23.8,19.4,23.7,19.4L23.7,19.4C23.8,19.4,23.8,19.4,23.7,19.4L23.7,19.4L23.7,19.4z M26.5,14.7c-0.4,0-0.7,0.1-1,0.2
		c0,0-0.1,0-0.1,0c0.1-0.2,0.3-0.4,0.3-0.4c0,0-0.4,0.2-0.5,0.5c0,0,0,0.1-0.1,0.1c-0.3,0.2-0.7,0.4-0.9,0.6l0,0l-2.1-2.1
		c0.6-0.5,1.3-1,2-1.3c0.8-0.3,1.6-0.5,2.4-0.5L26.5,14.7L26.5,14.7L26.5,14.7z M16.7,3.7c1-0.7,2-1.2,3.1-1.7
		c2.1-0.9,4.4-1.4,6.7-1.4v3C22.6,3.8,19,5.3,16.4,7.8l-2.1-2.1C15,5,15.9,4.3,16.7,3.7z M10.2,11.7c0.5-1.1,1-2.1,1.7-3.1
		c0.6-0.9,1.2-1.7,2-2.4L16,8.3c-2.5,2.6-4.1,6.2-4.2,10.1h-3C8.8,16.1,9.3,13.8,10.2,11.7z M11.8,28.8c-0.7-1-1.2-2-1.7-3.1
		c-0.9-2.1-1.4-4.4-1.4-6.7h3c0,1.5,0.3,3,0.7,4.3l0,0c-0.2,0-0.2-0.1-0.5-0.2c-0.2-0.1-0.3,0-0.4,0c-0.2,0-0.5-0.2-0.5,0
		c0,0.1,0.2,0.1,0.2,0.2c0,0.1-0.5,0.1-0.5-0.1c0-0.2-0.1-0.4-0.2-0.2c0,0.3-0.2,0.2-0.3,0.3c-0.1,0.1-0.1,0.2-0.1,0.3
		c0,0.1-0.3,0-0.2,0.2s0.2,0.2,0.2,0.4c0,0.2,0.2,0.3,0.1,0.3c-0.1,0-0.1-0.1-0.1,0c-0.1,0.1,0.5,1.5,0.6,1.5c0.1,0-0.2-0.5-0.1-0.7
		c0-0.2,0-0.3,0.2-0.3c0.2-0.1,0.5,0.6,0.7,0.5c0.1-0.1,0-0.2,0.1-0.3c0.1,0,0.6,0.7,0.7,0.4c0.1-0.1,0.2,0.1,0.2,0.2
		c0.1,0.2,0.4,0.2,0.6,0.5c0.1,0.2,0.5,0.8,0.8,0.8c0.2,0,0.1-0.2,0.2-0.2c0.1,0,0.2,0.3,0.3,0.5c0.1,0.1,0.3,0.2,0.4,0.3
		c0.4,0.5,0.8,1,1.2,1.4l-2.1,2.1C13.1,30.5,12.5,29.6,11.8,28.8L11.8,28.8z M26.5,36.7c-2.3,0-4.6-0.5-6.7-1.4
		c-1.1-0.4-2.1-1-3.1-1.7c-0.9-0.6-1.7-1.2-2.4-2l2.1-2.1c2.6,2.5,6.2,4.1,10.1,4.2C26.5,33.7,26.5,36.7,26.5,36.7z M26.5,33.1
		c-1.8,0-3.6-0.4-5.3-1.1c-1.6-0.7-3.1-1.7-4.3-2.9l0.4-0.4c0.1,0.1,0.3,0.2,0.3,0.2c0.2,0.1,0.4,0.1,0.7,0.1c0.2,0,0.6-0.4,0.8-0.4
		c0.2,0,0.6,0.1,0.9,0c0.3-0.2-0.2-0.7-0.3-0.9c0,0-0.1-0.1-0.1-0.2c1.9,1.6,4.3,2.5,6.9,2.6L26.5,33.1L26.5,33.1z M26.5,29.4
		c-1.3,0-2.6-0.3-3.8-0.8c-1.2-0.5-2.2-1.2-3.2-2.1l2.1-2.1c0.9,0.9,2.1,1.5,3.4,1.8c0,0,0,0,0,0c-0.3,0.1-0.6,0.5-0.5,0.7
		c0.1,0.3-0.3,0.4-0.3,0.7c0,0.3,0.4,0.5,0.5,0.8c0,0.2,0.4,0.4,0.7,0.6c0.1,0.1,1,0.1,1.1,0.1c0,0,0.1,0,0.1,0L26.5,29.4L26.5,29.4
		z M27,25.2c-0.2,0-0.3,0.2-0.5,0.2c-0.1,0-0.1,0-0.2-0.1c-0.2-0.1-0.3,0.2-0.4,0.2c0,0-0.1,0.1-0.2,0.1c-0.6-0.1-1.1-0.2-1.7-0.5
		c-0.7-0.3-1.4-0.8-2-1.3l2.1-2.1l0,0c0.6,0.5,1.3,0.8,2.2,0.9c0,0,0,0,0,0c0,0.1,0,0.1,0.1,0.2c0,0,0,0.1,0,0.2
		c0,0.1-0.1,0.3-0.1,0.4c0,0,0,0,0.1,0c0.2,0,0.4-0.1,0.4-0.2c0-0.1-0.1-0.2-0.2-0.4c0-0.1,0-0.2-0.1-0.2c0,0,0,0,0,0
		c0,0,0.1,0,0.1,0c0.1,0,0.2,0,0.3,0c0.1,0,0.1,0,0.2,0c0,0,0-0.1,0.1-0.1c0,0,0.1-0.2,0.1-0.2c0,0,0.1,0.1,0.1,0.1s0.1,0.1,0.1,0.1
		c0,0.1,0.1,0.2,0.2,0.1c0,0,0.1-0.1,0.1-0.2c0-0.2,0-0.3,0-0.4c0-0.1-0.1-0.2-0.1-0.2c0-0.1,0-0.2,0-0.2c0-0.1,0-0.4,0.2-0.3
		c0.1,0,0,0.3,0,0.4c0,0,0,0,0,0.1c0,0.1,0.1,0.3,0.2,0.2c0.1,0,0.2-0.2,0.3-0.2c0.1,0.1-0.3,0.2-0.3,0.2c0,0.1,0.1,0.2,0.1,0.2
		s-0.1,0-0.1,0c0,0,0,0,0,0.1c0,0.1,0.1,0.3,0,0.3s-0.4,0.2-0.5,0.2c-0.1,0-0.2,0-0.1-0.1c0,0,0-0.1,0-0.2c0,0,0,0-0.1,0s0,0-0.1,0
		s0,0.1,0,0.1c0,0,0,0,0,0.1c0,0.1,0.1,0.2,0.1,0.3c0,0.1-0.2,0.1-0.2,0.1c0,0-0.1,0.1-0.1,0.1c-0.1,0.1-0.2,0.2-0.3,0.3
		c-0.1,0.1-0.3,0.1-0.4,0.1c0,0-0.1,0-0.1,0c0,0,0,0,0.1,0.1s0.1,0.1,0.1,0.1c0.1,0.1,0.2,0.3,0,0.4c0,0-0.1,0-0.1,0
		c-0.2,0-0.3-0.2-0.5-0.1c-0.2,0.1-0.2,0.3-0.2,0.6c0,0.2,0.4,0.3,0.7,0.3c0.1,0,0.1,0,0.2,0c0.2-0.1,0.2-0.4,0.3-0.5
		c0.1,0,0.1-0.1,0.1-0.1c0.1-0.1,0.1-0.1,0.2-0.1c0.2,0,0.2-0.1,0.3-0.1c0.2,0,0.2,0.1,0.5,0.2c0.4,0.1,0.4,0.4,0.5,0.2
		c0.1-0.2,0.1-0.2-0.2-0.3c-0.4-0.1-0.4-0.4-0.2-0.3c0.3,0.2,0.5,0.1,0.6,0.3c0.1,0.2,0.4,0.1,0.4,0.3c0,0.2,0.2,0,0.1-0.1
		c-0.2-0.2-0.1-0.2,0-0.3c0.1-0.1,0.2,0,0.3-0.1c0.1-0.2-0.1-0.2-0.1-0.2c0-0.1,0-0.7,0.2-0.5c0.2,0.1,0.4,0,0.3-0.1
		c-0.1-0.1,0-0.3,0.1-0.3c0.1,0,0,0.2,0.1,0.2c0.1,0.1,0.6-0.2,0.6,0.1c0,0.2-0.3,0.4-0.4,0.4c-0.2,0-0.3,0.2-0.5,0.4
		c-0.1,0.1-0.3,0.3-0.2,0.4c0.1,0.2,0.3,0.2,0.5,0c0.2-0.1,0.3-0.3,0.5-0.3c0.2-0.1,0.3,0.2,0.3,0.5c0,0.1,0,0.1,0,0.2
		c-0.1,0.1-0.3,0.2-0.4,0.2c-0.2,0.2-0.5,0.2-0.7,0.3c-0.1,0-0.1,0-0.2,0c-0.1,0-0.2,0.1-0.2,0.1c0,0,0,0.1,0,0.2
		c0,0.1-0.4,0.1-0.7,0.1c-0.2,0-0.4,0-0.5-0.1c-0.2,0,0.1-0.5-0.2-0.4C27.6,25.1,27.3,25.2,27,25.2C27,25.2,27,25.3,27,25.2L27,25.2
		z M28.9,29.9L28.9,29.9c0.2,0.2,0.4,0.2,0.6,0.5c0.2,0.2,0.2,0.3,0.1,0.6c-0.3,0.4-0.1,0.7,0.3,0.9c0.3,0.1,0.4,0.4,0.6,0.6
		c0,0,0,0.1,0.1,0.1h0c-1.2,0.3-2.3,0.5-3.6,0.5v-3C27.7,30,28.3,30,28.9,29.9L28.9,29.9z M27.1,29.4v-0.5c0,0,0,0,0.1,0
		c0.6-0.1,0.5,0.3,1,0.2c0.1,0,0.3,0,0.4,0.1c0.1,0,0.1,0.1,0.1,0.1C28.2,29.4,27.7,29.4,27.1,29.4L27.1,29.4z M36.9,33.7
		c-1,0.7-2,1.2-3.1,1.7c-2.1,0.9-4.4,1.4-6.7,1.4v-3c1.6,0,3.1-0.3,4.5-0.8c0,0,0.1,0.1,0.1,0.1c0.2,0,0.4-0.1,0.5-0.2
		c0.4-0.2,0.9-0.4,1.3-0.7l0,0c1.3-0.7,2.5-1.5,3.6-2.5l2.1,2.1C38.6,32.4,37.8,33.1,36.9,33.7L36.9,33.7z M43.4,25.7
		c-0.4,1.1-1,2.1-1.7,3.1c-0.6,0.9-1.2,1.7-2,2.4l-2.1-2.1c2.5-2.6,4.1-6.2,4.2-10.1h3C44.8,21.3,44.3,23.6,43.4,25.7z M41.8,18.4
		c-0.1-2.2-0.6-4.3-1.5-6.2l0,0c0,0,0,0,0.1,0c0.2-0.2-0.9-1.7-1.1-1.8l0,0c-0.5-0.7-1-1.4-1.6-2l2.1-2.1c0.7,0.8,1.4,1.6,2,2.4
		c0.7,1,1.2,2,1.7,3.1c0.9,2.1,1.4,4.4,1.4,6.7L41.8,18.4L41.8,18.4z"/>
</g>
<g>
	<path class="st0" d="M71.2,35.7h-1.6L64.9,26h-0.1l0,2.9v10.6h-2V23h2.5l5.1,10.4h0.1L75.6,23H78v16.5h-2V28.9l0-2.9h-0.1
		L71.2,35.7L71.2,35.7z"/>
	<path class="st0" d="M89.8,37.1c0,0.8,0.3,1.1,0.9,1.1c0.3,0,0.6-0.1,0.8-0.3l0.1,1.5c-0.3,0.2-0.9,0.3-1.4,0.3
		c-0.9,0-1.6-0.4-2-1.1c-0.2-0.3-0.2-0.6-0.3-1c-0.5,1.4-2,2.1-3.6,2.1c-2.2,0-3.8-1.3-3.8-3.5c0-2.4,2-4,6.2-4c0.3,0,0.7,0,1.2,0.1
		v-1.5c0-1.5-0.8-2.4-2.4-2.4S83,29.4,83,30.7l-2-0.3c0.3-2.3,2.2-3.5,4.5-3.5c2.6,0,4.2,1.2,4.2,3.8L89.8,37.1L89.8,37.1z
		 M87.9,33.8c-0.3,0-0.7-0.1-1.2-0.1c-2.7,0-4.2,0.7-4.2,2.4c0,1.2,0.8,2,2.3,2c1.5,0,3.1-1,3.1-3.3L87.9,33.8L87.9,33.8z"/>
	<path class="st0" d="M98,26.8c2.5,0,4.3,1.5,4.5,3.8l-1.9,0.3c-0.1-1.4-1.1-2.5-2.7-2.5c-2.3,0-3.5,2-3.5,4.9s1.2,4.9,3.5,4.9
		c1.6,0,2.6-1.1,2.7-2.6l1.9,0.3c-0.4,2.4-2,3.8-4.5,3.8c-3.3,0-5.5-2.4-5.5-6.5S94.7,26.9,98,26.8L98,26.8z"/>
	<path class="st0" d="M113.1,37.1c0,0.8,0.4,1.1,0.9,1.1c0.3,0,0.6-0.1,0.8-0.3l0.1,1.5c-0.3,0.2-0.9,0.3-1.4,0.3
		c-0.9,0-1.6-0.4-2-1.1c-0.1-0.3-0.2-0.6-0.3-1c-0.5,1.4-2,2.1-3.6,2.1c-2.2,0-3.8-1.3-3.8-3.5c0-2.4,2-4,6.2-4c0.3,0,0.7,0,1.2,0.1
		v-1.5c0-1.5-0.8-2.4-2.4-2.4s-2.4,0.9-2.4,2.2l-2-0.3c0.3-2.3,2.1-3.5,4.5-3.5c2.6,0,4.2,1.2,4.2,3.8L113.1,37.1L113.1,37.1z
		 M111.2,33.8c-0.3,0-0.7-0.1-1.2-0.1c-2.7,0-4.2,0.7-4.2,2.4c0,1.2,0.8,2,2.3,2c1.5,0,3.1-1,3.1-3.3L111.2,33.8L111.2,33.8z"/>
	<path class="st0" d="M124.3,37.1c-0.6,1.8-2,2.6-3.9,2.6c-2,0-3.8-1.3-3.8-3.9v-8.7h2v8.5c0,1.6,0.9,2.5,2.4,2.5
		c1.7,0,3.1-1.2,3.1-3.8v-7.2h2.1v12.4h-1.6L124.3,37.1L124.3,37.1z"/>
</g>
<g>
	<path class="st0" d="M72.6,12V2.2h4.2v10.1c0,4.7-3,6.7-6.9,6.7s-7-2-7-6.7V2.2H67V12c0,2.2,0.8,3.5,2.8,3.5S72.6,14.1,72.6,12
		L72.6,12z"/>
	<path class="st0" d="M89.3,2.2h4v16.5h-3.7L82.9,8.5h-0.1v10.2h-4V2.2h3.9l6.5,10.1h0.1L89.3,2.2L89.3,2.2z"/>
	<path class="st0" d="M105.1,12V2.2h4.1v10.1c0,4.7-3,6.7-6.9,6.7s-6.9-2-6.9-6.7V2.2h4.2V12c0,2.2,0.8,3.5,2.8,3.5
		S105.1,14.1,105.1,12L105.1,12z"/>
</g>
</svg>
