<?xml version="1.0" encoding="utf-8"?>
<!-- Generator: Adobe Illustrator 16.0.0, SVG Export Plug-In . SVG Version: 6.00 Build 0)  -->
<!DOCTYPE svg PUBLIC "-//W3C//DTD SVG 1.1//EN" "http://www.w3.org/Graphics/SVG/1.1/DTD/svg11.dtd">
<svg version="1.1" id="Layer_1" xmlns="http://www.w3.org/2000/svg" xmlns:xlink="http://www.w3.org/1999/xlink" x="0px" y="0px"
	 width="202px" height="209px" viewBox="0 0 202 209" enable-background="new 0 0 202 209" xml:space="preserve">
<g>
	<g>
		<g>
			<path fill="#F8A147" d="M136.031,112.746c0.604,0.41,1.069,1.005,1.308,1.701l14.486,1.265l-0.174,1.993l-14.26-1.246
				c-0.436,1.525-1.9,2.581-3.536,2.438c-0.442-0.039-0.854-0.167-1.228-0.356l-8.448,9.922l-1.521-1.297l8.53-10.019
				c-0.31-0.562-0.462-1.219-0.402-1.906c0.152-1.738,1.607-3.04,3.316-3.063C134.103,112.178,135.414,112.206,136.031,112.746z"/>
		</g>
	</g>
	<g>
		<g>
			<path fill="#F8A147" d="M156.487,154.126c-0.321,1.513-1.752,2.73-3.336,2.73c-0.443,0-0.865-0.092-1.254-0.248l-7.553,10.619
				l-1.629-1.16l7.627-10.723c-0.357-0.533-0.566-1.174-0.566-1.863c0-1.861,1.514-3.375,3.375-3.375
				c0.289,0,0.566,0.044,0.832,0.112l5.199-8.689l1.717,1.027c0,0-5.211,8.71-5.211,8.711c-0.005,0.008,0.463,0.676,0.514,0.78
				c0.168,0.344,0.286,0.711,0.331,1.091C156.573,153.475,156.555,153.807,156.487,154.126z"/>
		</g>
	</g>
	<g>
		<g>
			<path fill="#F8A147" d="M124.668,81.635l9.641-9.482c0.476,0.495,1.101,0.854,1.825,0.982c1.617,0.286,3.17-0.637,3.737-2.117
				l13.11,2.323l0.35-1.969l-13.334-2.363c-0.1-0.409-0.284-0.79-0.523-1.131l9.383-9.866l-1.449-1.378l-9.522,10.015
				c-0.185-0.067-0.373-0.125-0.573-0.16c-1.832-0.325-3.587,0.901-3.912,2.734c-0.062,0.348-0.051,0.69-0.007,1.025l-10.126,9.961
				L124.668,81.635z"/>
		</g>
	</g>
	<g>
		<g>
			<path fill="#F8A147" d="M29.159,147.835c-1.861,0-3.375,1.514-3.375,3.375c0,0.355,0.07,0.691,0.172,1.012l-8.234,11.576
				l1.629,1.16l7.838-11.02c0.557,0.402,1.232,0.646,1.971,0.646c1.643,0,3.01-1.18,3.311-2.734h13.314v-2H32.243
				C31.718,148.665,30.536,147.835,29.159,147.835z"/>
		</g>
	</g>
	<g>
		<g>
			<path fill="#F8A147" d="M93.71,139.833c-1.843-0.265-3.556,1.019-3.82,2.861c-0.051,0.352-0.028,0.694,0.026,1.026l-9.795,10.289
				l1.448,1.38l9.322-9.795c0.494,0.478,1.129,0.814,1.859,0.92c1.626,0.233,3.146-0.741,3.666-2.237l13.18,1.891l0.283-1.979
				l-13.403-1.923C96.124,141.018,95.072,140.028,93.71,139.833z"/>
		</g>
	</g>
	<g>
		<g>
			<path fill="#F8A147" d="M62.405,118.038c-1.861,0-3.375,1.514-3.375,3.375c0,0.355,0.07,0.691,0.172,1.012l-8.232,11.576
				l1.629,1.16l7.838-11.02c0.555,0.402,1.232,0.646,1.969,0.646c1.643,0,3.01-1.18,3.311-2.734H79.03v-2H65.489
				C64.964,118.868,63.782,118.038,62.405,118.038z"/>
		</g>
	</g>
	<g>
		<g>
			<path fill="#F8A147" d="M31.527,112.126l16.375-20.935l-1.575-1.231l-16.148,20.646c-0.511-0.32-1.11-0.513-1.756-0.516
				c-1.861-0.014-3.385,1.491-3.396,3.353c-0.005,0.688,0.199,1.33,0.552,1.867l-7.696,10.674l1.621,1.171l7.623-10.569
				c0.387,0.158,0.809,0.25,1.253,0.254c1.642,0.012,3.018-1.161,3.329-2.711l14.312,0.093l0.014-2.001L31.527,112.126z"/>
		</g>
	</g>
	<g>
		<g>
			<path fill="#F8A147" d="M19.239,77.129l7.076-7.323c0.965,0.589,2.195,0.695,3.287,0.167c1.711-0.829,2.426-2.886,1.596-4.596
				c-0.066-0.138-0.152-0.257-0.234-0.381l5.525-5.719l-1.652-1.293l-5.502,5.692c-0.855-0.329-1.838-0.325-2.73,0.106
				c-1.654,0.802-2.363,2.758-1.652,4.431l-7.367,7.623L19.239,77.129z"/>
		</g>
	</g>
	<g>
		<g>
			<path fill="#F8A147" d="M107.032,149.966l-6.207,4.912c-0.807-0.44-1.781-0.566-2.723-0.257c-1.746,0.575-2.709,2.42-2.227,4.173
				l-8.312,6.578l1.471,1.5l7.984-6.319c0.879,0.711,2.084,0.98,3.236,0.602c1.805-0.596,2.785-2.539,2.191-4.344
				c-0.049-0.145-0.117-0.275-0.182-0.409l6.234-4.935L107.032,149.966z"/>
		</g>
	</g>
	<g>
		<g>
			<path fill="#F8A147" d="M76.513,149.214l-9.291,6.45c-0.785-0.511-1.768-0.713-2.746-0.457c-1.797,0.469-2.881,2.283-2.473,4.08
				l-9.209,5.88l1.373,1.589l8.893-5.66c0.828,0.74,2,1.066,3.154,0.766c1.838-0.481,2.939-2.359,2.459-4.199
				c-0.033-0.13-0.09-0.247-0.137-0.369l9.346-6.489L76.513,149.214z"/>
		</g>
	</g>
	<g>
		<g>
			<path fill="#F8A147" d="M94.567,104.136l14.885-22.019l-0.359-0.243v-1.968H95.552c-0.525-1.186-1.707-2.016-3.084-2.016
				c-1.861,0-3.375,1.514-3.375,3.375c0,0.355,0.07,0.691,0.172,1.012L81.03,93.854l1.629,1.16l7.838-11.02
				c0.557,0.402,1.232,0.646,1.971,0.646c1.643,0,3.01-1.18,3.311-2.734h11.402l-14.064,20.808
				c-0.533-0.284-1.143-0.435-1.789-0.394c-1.857,0.116-3.273,1.723-3.156,3.58c0.043,0.688,0.291,1.313,0.682,1.825l-6.939,11.181
				l1.699,1.056l6.871-11.072c0.398,0.132,0.824,0.194,1.268,0.167c1.639-0.103,2.93-1.367,3.133-2.936l14.285-0.898l-0.125-1.997
				L94.567,104.136z"/>
		</g>
	</g>
	<g>
		<g>
			<circle fill="#F8A147" cx="136.997" cy="150.854" r="3.321"/>
		</g>
	</g>
	<g>
		<g>
			<polygon fill="#F8A147" points="126.7,166.397 125.06,165.253 135.295,150.57 135.472,150.462 150.892,140.942 151.942,142.644 
				136.699,152.055 			"/>
		</g>
	</g>
	<g>
		<g>
			<circle fill="#F8A147" cx="139.993" cy="90.701" r="3.321"/>
		</g>
	</g>
	<g>
		<g>
			<polygon fill="#F8A147" points="140.214,92.199 124.209,90.034 124.477,88.052 139.772,90.121 151.251,83.035 152.302,84.736 			
				"/>
		</g>
	</g>
	<g>
		<g>
			
				<rect x="141.565" y="98.451" transform="matrix(0.592 0.8059 -0.8059 0.592 146.2157 -70.3239)" fill="#F8A147" width="1.999" height="21.6"/>
		</g>
	</g>
	<g>
		<g>
			<path fill="#F8A147" d="M83.391,66.625c0.723,0.102,1.403,0.43,1.925,0.949l13.557-5.26l0.724,1.865L86.25,69.356
				c0.282,1.561-0.565,3.154-2.097,3.748c-0.414,0.161-0.84,0.228-1.259,0.223l-3.2,12.632l-1.938-0.492l3.232-12.755
				c-0.526-0.368-0.952-0.89-1.202-1.533c-0.631-1.627,0.1-3.438,1.623-4.213C81.409,66.966,82.599,66.413,83.391,66.625z"/>
		</g>
	</g>
	<g>
		<g>
			
				<rect x="69.312" y="62.967" transform="matrix(0.6996 0.7145 -0.7145 0.6996 68.7148 -35.526)" fill="#F8A147" width="14.6" height="2"/>
		</g>
	</g>
	<g>
		<g>
			
				<rect x="131.168" y="87.599" transform="matrix(0.6571 0.7538 -0.7538 0.6571 119.1709 -66.0321)" fill="#F8A147" width="2" height="20.755"/>
		</g>
	</g>
	<g>
		<g>
			<circle fill="#F8A147" cx="64.941" cy="99.221" r="3.321"/>
		</g>
	</g>
	<g>
		<g>
			<polygon fill="#F8A147" points="65.162,100.719 49.157,98.554 49.425,96.571 64.721,98.641 76.199,91.555 77.25,93.256 			"/>
		</g>
	</g>
	<g>
		<g>
			
				<rect x="56.116" y="96.118" transform="matrix(0.6571 0.7538 -0.7538 0.6571 99.8591 -6.5381)" fill="#F8A147" width="2" height="20.755"/>
		</g>
	</g>
	<g>
		<g>
			<polygon fill="#F8A147" points="19.851,103.092 18.181,101.992 30.692,82.989 19.177,84.873 18.854,82.898 34.872,80.28 			"/>
		</g>
	</g>
	<g>
		<g>
			
				<rect x="39.191" y="67.9" transform="matrix(0.6344 0.773 -0.773 0.6344 73.4766 -3.2668)" fill="#F8A147" width="2.001" height="16.29"/>
		</g>
	</g>
	<g>
		<g>
			<circle fill="#F8A147" cx="172.425" cy="155.206" r="3.321"/>
		</g>
	</g>
	<g>
		<g>
			<polygon fill="#F8A147" points="174.271,168.759 170.933,154.95 177.962,140.409 179.763,141.28 173.044,155.177 
				176.215,168.288 			"/>
		</g>
	</g>
	<g>
		<g>
			
				<rect x="160.167" y="147.429" transform="matrix(0.5208 0.8537 -0.8537 0.5208 207.1771 -72.2417)" fill="#F8A147" width="15.546" height="1.999"/>
		</g>
	</g>
	<g>
		<g>
			<g>
				<circle fill="#F8A147" cx="137.746" cy="130.75" r="3.321"/>
			</g>
		</g>
		<g>
			<g>
				<polygon fill="#F8A147" points="123.196,141.16 122.142,139.461 137.991,129.616 152.23,136.252 151.385,138.064 
					138.128,131.886 				"/>
			</g>
		</g>
	</g>
	<g>
		<g>
			<path fill="#F8A147" d="M153.167,153.809"/>
		</g>
	</g>
	<g>
		<g>
			
				<rect x="149.296" y="158.885" transform="matrix(0.4226 0.9063 -0.9063 0.4226 234.9798 -49.0686)" fill="#F8A147" width="13.41" height="2"/>
		</g>
	</g>
	<g>
		<g>
			<path fill="#F8A147" d="M138.06,130.751"/>
		</g>
	</g>
	<g>
		<g>
			<g>
				<circle fill="#F8A147" cx="63.008" cy="140.324" r="3.321"/>
			</g>
		</g>
		<g>
			<g>
				<polygon fill="#F8A147" points="48.458,150.733 47.403,149.034 63.253,139.189 77.492,145.825 76.646,147.638 63.39,141.459 
									"/>
			</g>
		</g>
	</g>
	<g>
		<g>
			<path fill="#F8A147" d="M63.321,140.324"/>
		</g>
	</g>
	<g>
		<g>
			<circle fill="#F8A147" cx="94.75" cy="120.918" r="3.321"/>
		</g>
	</g>
	<g>
		<g>
			<circle fill="#F8A147" cx="32.753" cy="81.211" r="3.321"/>
		</g>
	</g>
	<g>
		<g>
			<circle fill="#F8A147" cx="46.488" cy="70.877" r="3.321"/>
		</g>
	</g>
	<g>
		<g>
			<circle fill="#F8A147" cx="62.5" cy="75.136" r="3.321"/>
		</g>
	</g>
	<g>
		<g>
			<polygon fill="#F8A147" points="80.2,131.328 79.146,129.629 94.995,119.784 109.234,126.42 108.389,128.232 95.132,122.054 			
				"/>
		</g>
	</g>
	<g>
		<g>
			<path fill="#F8A147" d="M95.063,120.919"/>
		</g>
	</g>
	<g>
		<g>
			
				<rect x="99.583" y="128.586" transform="matrix(0.5135 0.8581 -0.8581 0.5135 167.1908 -19.2627)" fill="#F8A147" width="2.001" height="18.454"/>
		</g>
	</g>
	<g>
		<g>
			<path fill="#F8A147" d="M35.186,137.47c1.843,0.265,3.556-1.019,3.82-2.861c0.051-0.352,0.028-0.694-0.026-1.026l9.795-10.289
				l-1.448-1.38l-9.322,9.795c-0.494-0.478-1.129-0.814-1.859-0.92c-1.626-0.233-3.146,0.741-3.666,2.237l-13.18-1.891l-0.283,1.979
				l13.403,1.923C32.771,136.285,33.823,137.274,35.186,137.47z"/>
		</g>
	</g>
	<g>
		<g>
			
				<rect x="27.312" y="130.263" transform="matrix(0.5135 0.8581 -0.8581 0.5135 133.4702 43.5685)" fill="#F8A147" width="2.001" height="18.454"/>
		</g>
	</g>
	<g>
		<g>
			<polygon fill="#F8A147" points="78.309,85.646 63.076,76.33 50.986,84.708 49.848,83.063 63.008,73.943 79.352,83.939 			"/>
		</g>
	</g>
	<g>
		<g>
			
				<rect x="68.264" y="101.947" transform="matrix(0.7391 0.6736 -0.6736 0.7391 94.099 -17.2106)" fill="#F8A147" width="2.001" height="21.817"/>
		</g>
	</g>
	<g>
		<g>
			
				<rect x="69.195" y="123.632" transform="matrix(0.71 0.7042 -0.7042 0.71 114.2863 -10.7495)" fill="#F8A147" width="2" height="19.523"/>
		</g>
	</g>
	<g>
		<g>
			
				<rect x="27.364" y="157.855" transform="matrix(0.7495 0.662 -0.662 0.7495 114.6627 14.712)" fill="#F8A147" width="21.058" height="1.999"/>
		</g>
	</g>
	<g>
		<g>
			<polygon fill="#F8A147" points="45.879,72.44 42.202,59.015 44.132,58.487 47.098,69.315 65.29,57.904 66.353,59.598 			"/>
		</g>
	</g>
	<g>
		<path fill="#F8A147" d="M24.014,25.076v15.211h-3.571V25.076h-3.69v-3.108h10.963v3.108H24.014z"/>
		<path fill="#F8A147" d="M61.751,21.968v18.319H58.18V21.968H61.751z"/>
		<path fill="#F8A147" d="M93.508,40.287V21.481h2.574l9.646,12.802h0.047V21.968h3.571v18.687h-2.574l-9.646-12.813h-0.047v12.446
			H93.508z"/>
		<path fill="#F8A147" d="M145.079,31.875l-5.684-9.907h4.152l3.21,6.359l3.494-6.359h4.177l-5.778,9.907v8.412h-3.571V31.875z"/>
	</g>
	<g>
		<g>
			<path fill="#3A5D7F" d="M111.009,187.519H16.751l0.062-131.207h80.479l13.717,19.539V187.519z M52.45,164.347h22.984v-82.67
				h8.518v82.67h22.859l-0.062-86.992L94.913,60.382H21.136v103.965H44.12v-82.67h8.33V164.347z"/>
		</g>
		<g>
			<path fill="#3A5D7F" d="M185.249,187.519h-62.943l0.062-131.207h31.691v82.92h31.189V187.519z M149.675,60.382H126.69v103.965
				h54.299v-20.98h-31.314V60.382z"/>
		</g>
	</g>
</g>
</svg>
